<?xml version="1.0" encoding="utf-8"?>
<!-- Generator: Adobe Illustrator 27.5.0, SVG Export Plug-In . SVG Version: 6.00 Build 0)  -->
<svg version="1.1" xmlns="http://www.w3.org/2000/svg" xmlns:xlink="http://www.w3.org/1999/xlink" x="0px" y="0px"
	 viewBox="0 0 750 500" style="enable-background:new 0 0 750 500;" xml:space="preserve">
<g id="BACKGROUND">
	<linearGradient id="SVGID_1_" gradientUnits="userSpaceOnUse" x1="375" y1="500" x2="375" y2="0">
		<stop  offset="0" style="stop-color:#FFFFEB"/>
		<stop  offset="0.6347" style="stop-color:#FAE6E7"/>
		<stop  offset="1" style="stop-color:#74B8ED"/>
	</linearGradient>
	<rect style="fill:url(#SVGID_1_);" width="750" height="500"/>
</g>
<g id="OBJECTS">
	<g>
		<defs>
			<rect id="SVGID_00000098939591390928994010000001351233978276456102_" width="750" height="500"/>
		</defs>
		<clipPath id="SVGID_00000138555028741435064300000002198935537350642871_">
			<use xlink:href="#SVGID_00000098939591390928994010000001351233978276456102_"  style="overflow:visible;"/>
		</clipPath>
		<g style="clip-path:url(#SVGID_00000138555028741435064300000002198935537350642871_);">
			<path style="fill:#FDFDFD;" d="M726.159,199.795c-12.153-5.663-25.548-4.065-37.263,2.978
				c-13.102,7.876-18.063,23.422-28.7,34.579c-20.306,21.3-39.432-23.638-60.229-3.71c-13.503,12.939-20.567,39.443-37.412,45.182
				c-15.53,5.289-23.988-14.057-37.493-15.901c-11.688-1.596-25.72,14.454-31.952,27.313c-1.005,2.073-1.95,4.273-3.093,6.172
				v140.16H750V209.607C741.841,209.851,734.067,203.48,726.159,199.795z"/>
			<path style="fill:#FDFDFD;" d="M356.494,436.568v-94.205c-2.305-8.046-11.04-0.403-15.628,0.242
				c-9.081,1.276-14.423-3.715-16.271-15.49c-1.603-10.212-0.811-22.111-4.974-30.324c-5.109-10.08-16.155-11.603-26.46-10.757
				c-10.305,0.846-21.245,3.346-30.092-1.034c-11.137-5.514-16.804-20.921-27.552-27.298c-9.947-5.901-23.15-3.208-35.115,3.626
				c-10.707,6.115-21.809,21.356-32.144,25.779c-10.315,4.414-17.079-5.909-23.136-12.865c-7.997-9.185-18.512-14.699-30.025-16.02
				c-12.66-1.453-24.24,2.293-33.536-9.24c-11.256-13.964-10.544-44.073-26.486-48.965c-9.801-3.008-21.906,5.541-32.102,3.829
				C13.167,202.2,7.266,191.639,0,184.265v252.303H356.494z"/>
		</g>
		<g style="clip-path:url(#SVGID_00000138555028741435064300000002198935537350642871_);">
			
				<linearGradient id="SVGID_00000003085965957919635940000018068658711994410933_" gradientUnits="userSpaceOnUse" x1="213.2348" y1="73.1614" x2="213.2348" y2="54.2028" gradientTransform="matrix(-1 0 0 1 833.9113 0)">
				<stop  offset="0" style="stop-color:#FDFDFD;stop-opacity:0.2368"/>
				<stop  offset="0.7703" style="stop-color:#FDFDFD"/>
			</linearGradient>
			<path style="fill:url(#SVGID_00000003085965957919635940000018068658711994410933_);" d="M688.711,72.868
				c-4.167-2.086-6.69-7.709-10.099-10.837c-5.258-4.848-13.157-7.319-20.923-7.031c-8.581,0.341-13.475,5.076-20.366,7.515
				c-12.304,4.734-19.366-13.163-32.286-7.01c-7.881,4.005-11.653,13.031-20.029,14.853c-7.627,1.757-12.826-4.594-20.21-4.624
				c-4.838-0.01-9.442,3.33-12.156,7.133C552.642,72.868,688.18,73.528,688.711,72.868z"/>
			
				<linearGradient id="SVGID_00000139273281135123483760000002309544518207860917_" gradientUnits="userSpaceOnUse" x1="-1716.3129" y1="123.4555" x2="-1716.3129" y2="108.568" gradientTransform="matrix(1 0 0 1 1948.2601 0)">
				<stop  offset="0" style="stop-color:#FDFDFD;stop-opacity:0.2368"/>
				<stop  offset="0.7703" style="stop-color:#FDFDFD"/>
			</linearGradient>
			<path style="fill:url(#SVGID_00000139273281135123483760000002309544518207860917_);" d="M178.522,123.225
				c3.272-1.638,5.254-6.053,7.93-8.51c4.129-3.807,10.332-5.747,16.43-5.521c6.739,0.268,10.582,3.986,15.992,5.902
				c9.662,3.718,15.207-10.336,25.353-5.504c6.189,3.145,9.151,10.233,15.728,11.664c5.989,1.38,10.072-3.607,15.87-3.631
				c3.799-0.008,7.415,2.615,9.546,5.601C285.372,123.225,178.939,123.744,178.522,123.225z"/>
			<g>
				
					<linearGradient id="SVGID_00000016783088113443397110000001926431151720168631_" gradientUnits="userSpaceOnUse" x1="277.6646" y1="110.7811" x2="277.6646" y2="74.5965" gradientTransform="matrix(-1 0 0 1 833.9113 0)">
					<stop  offset="0" style="stop-color:#FDFDFD;stop-opacity:0.2368"/>
					<stop  offset="0.7703" style="stop-color:#FDFDFD"/>
				</linearGradient>
				<path style="fill:url(#SVGID_00000016783088113443397110000001926431151720168631_);" d="M440.538,97.871
					c2.406-0.411,4.862-0.372,7.205,0.297c3.055,0.872,5.721,2.743,8.66,3.949c6.464,2.652,12.605-1.11,16.68-6.166
					c10.107-12.542,17.126-26.082,35.84-19.739c7.921,2.684,15.218,7.458,23.512,8.536c19.443,2.529,38.919-15.721,57.11-8.409
					c13.802,5.548,19.702,23.684,33.876,28.197c9.014,2.87,18.653-0.678,27.62-3.691c9.991-3.357,17.599-3.797,27.55-0.744
					c5.984,1.836,12.133,7.56,18.29,10.68H415.611c1.356,0.083,15.175-9.177,18.933-10.968
					C436.436,98.91,438.469,98.225,440.538,97.871z"/>
			</g>
			<g>
				
					<linearGradient id="SVGID_00000105429050008048968040000004849193843437072797_" gradientUnits="userSpaceOnUse" x1="673.5334" y1="108.568" x2="673.5334" y2="80.1536" gradientTransform="matrix(-1 0 0 1 833.9113 0)">
					<stop  offset="0" style="stop-color:#FDFDFD;stop-opacity:0.2368"/>
					<stop  offset="0.7703" style="stop-color:#FDFDFD"/>
				</linearGradient>
				<path style="fill:url(#SVGID_00000105429050008048968040000004849193843437072797_);" d="M69.516,98.431
					c1.889-0.323,3.818-0.292,5.658,0.233c2.399,0.685,4.493,2.154,6.801,3.101c5.076,2.082,9.899-0.871,13.098-4.842
					c7.937-9.849,13.449-20.481,28.144-15.5c6.22,2.108,11.95,5.857,18.463,6.703c15.268,1.986,30.562-12.345,44.847-6.603
					c10.838,4.357,15.471,18.598,26.602,22.142c7.078,2.254,14.648-0.533,21.689-2.899c7.846-2.636,13.819-2.981,21.634-0.584
					c4.699,1.441,9.528,5.937,14.362,8.386c0,0-220.872,0-220.872,0c1.064,0.065,11.917-7.206,14.867-8.613
					C66.295,99.246,67.891,98.708,69.516,98.431z"/>
			</g>
			<g>
				
					<linearGradient id="SVGID_00000083065958242694293360000012160344659262317464_" gradientUnits="userSpaceOnUse" x1="637.0767" y1="229.8466" x2="637.0767" y2="193.6621" gradientTransform="matrix(-1 0 0 1 833.9113 0)">
					<stop  offset="0" style="stop-color:#FDFDFD;stop-opacity:0.2368"/>
					<stop  offset="0.7703" style="stop-color:#FDFDFD"/>
				</linearGradient>
				<path style="fill:url(#SVGID_00000083065958242694293360000012160344659262317464_);" d="M81.126,216.937
					c2.406-0.411,4.862-0.372,7.205,0.296c3.055,0.872,5.721,2.743,8.66,3.949c6.464,2.652,12.605-1.11,16.68-6.166
					c10.107-12.542,17.126-26.082,35.84-19.739c7.921,2.684,15.218,7.458,23.512,8.536c19.442,2.529,38.919-15.721,57.11-8.409
					c13.801,5.548,19.702,23.684,33.876,28.197c9.014,2.87,18.653-0.678,27.62-3.691c9.991-3.357,17.599-3.797,27.55-0.744
					c5.984,1.836,12.133,7.56,18.29,10.68c0,0-281.27,0-281.271,0c1.356,0.083,15.175-9.177,18.933-10.968
					C77.024,217.976,79.057,217.29,81.126,216.937z"/>
			</g>
			<g>
				
					<linearGradient id="SVGID_00000124868247747348167490000008686680690714580121_" gradientUnits="userSpaceOnUse" x1="-2038.3777" y1="202.6235" x2="-2038.3777" y2="181.511" gradientTransform="matrix(1 0 0 1 2323.75 0)">
					<stop  offset="0" style="stop-color:#FDFDFD;stop-opacity:0.2368"/>
					<stop  offset="0.7703" style="stop-color:#FDFDFD"/>
				</linearGradient>
				<path style="fill:url(#SVGID_00000124868247747348167490000008686680690714580121_);" d="M352.884,195.091
					c-1.404-0.24-2.837-0.217-4.204,0.173c-1.782,0.509-3.338,1.6-5.053,2.304c-3.772,1.547-7.355-0.648-9.732-3.598
					c-5.897-7.318-9.993-15.218-20.911-11.517c-4.622,1.566-8.879,4.351-13.718,4.981c-11.344,1.475-22.708-9.173-33.322-4.906
					c-8.053,3.237-11.495,13.819-19.765,16.452c-5.259,1.675-10.883-0.396-16.115-2.154c-5.83-1.959-10.268-2.215-16.075-0.434
					c-3.491,1.071-7.079,4.411-10.671,6.231h164.112c-0.791,0.048-8.854-5.354-11.047-6.4
					C355.278,195.697,354.092,195.297,352.884,195.091z"/>
			</g>
		</g>
		<g style="clip-path:url(#SVGID_00000138555028741435064300000002198935537350642871_);">
			
				<linearGradient id="SVGID_00000086690125311685258150000018332849291816700544_" gradientUnits="userSpaceOnUse" x1="375" y1="430.7529" x2="375" y2="244.2443">
				<stop  offset="0.3352" style="stop-color:#FFFFFF"/>
				<stop  offset="1" style="stop-color:#74B8ED"/>
			</linearGradient>
			<path style="fill:url(#SVGID_00000086690125311685258150000018332849291816700544_);" d="M671.93,344.307
				c-25.182-2.523-103.019-7.299-127.414-14.361v-0.052c-0.335-0.076-0.667-0.161-1.001-0.239
				c-53.845-15.734-105.405-42.635-153.108-81.158c-2.989-3.856-8.925-4.6-15.407-4.125c-6.483-0.475-12.419,0.269-15.407,4.125
				c-47.703,38.523-99.262,65.425-153.107,81.158c-0.335,0.078-0.666,0.163-1.001,0.239v0.052
				c-24.394,7.062-102.231,11.838-127.414,14.361v86.446H671.93V344.307z"/>
			<path style="fill:#FDFDFD;" d="M337.04,272.102c8.874-12.077,17.317-10.27,12.363,6.063c15.55-1.434-2.502-7.964,27.596-15.318
				c3.129-7.045,17.153,10.967,26.482,15.789c5.947,1.566-9.712-10.338-1.167-9.809c10.677,0.962,15.513,13.737,15.747,1.071
				c-2.472-2.222-4.78-4.348-6.941-6.376c-6.98-5.038-13.887-10.304-20.714-15.817c-2.989-3.855-8.925-4.6-15.407-4.125
				c-6.483-0.475-12.419,0.269-15.407,4.125c-6.85,5.532-13.782,10.816-20.787,15.87c-1.886,1.793-3.866,3.656-5.974,5.61
				C339.287,263.689,330.026,277.965,337.04,272.102z"/>
		</g>
		
			<linearGradient id="SVGID_00000014607906849875654030000017447647376401955206_" gradientUnits="userSpaceOnUse" x1="375" y1="530.3224" x2="375" y2="289.9756" gradientTransform="matrix(-1 0 0 1 750 0)">
			<stop  offset="0.3305" style="stop-color:#FFFFFF"/>
			<stop  offset="1" style="stop-color:#64AADA"/>
		</linearGradient>
		
			<path style="clip-path:url(#SVGID_00000138555028741435064300000002198935537350642871_);fill:url(#SVGID_00000014607906849875654030000017447647376401955206_);" d="
			M0,500V291.281c2.458-0.491,4.64-0.881,7.198-1.094c13.686-1.139,28.816,2.302,39.644,10.474
			c12.205,9.212,20.851,17.831,37.557,17.487c7.26-0.15,14.515-1.976,21.716-1.045c10.362,1.339,17.626,8.351,26.801,12.555
			c14.977,6.863,32.44,9.34,48.482,4.977c18.21-4.952,29.788-20.313,49.465-19.799c12.098,0.316,22.001,6.908,34.004,7.954
			c11.575,1.008,22.482-3.255,33.595-5.618c15.615-3.32,32.826-2.383,47.878,1.746c16.834,4.618,23.208,13.732,36.876,20.274
			c23.716,11.352,48.166-9.271,72.557-4.697c7.189,1.349,14.323,3.563,21.634,3.327c14.513-0.469,19.572-14.442,31.859-19.63
			c9.803-4.14,22.669-2.84,33.742-0.48c11.073,2.359,22.17,5.674,33.775,5.118c14.607-0.701,27.216-7.431,41.747-8.641
			c13.447-1.12,26.974,2.717,37.427,8.415c9.354,5.1,15.398,14.888,25.035,19.061c9.618,4.166,21.355,0.213,30.925-2.169
			c12.175-3.032,25.225-3.879,38.083-2.605V500H0z"/>
		
			<linearGradient id="SVGID_00000045586235965692417960000005036084822731700136_" gradientUnits="userSpaceOnUse" x1="375" y1="499.7305" x2="375" y2="337.4826">
			<stop  offset="0.3305" style="stop-color:#FFFFFF"/>
			<stop  offset="1" style="stop-color:#64AADA"/>
		</linearGradient>
		
			<path style="clip-path:url(#SVGID_00000138555028741435064300000002198935537350642871_);fill:url(#SVGID_00000045586235965692417960000005036084822731700136_);" d="
			M750,479.261V338.624c-2.458-0.435-4.64-0.781-7.196-0.97c-13.447-0.992-26.974,2.407-37.427,7.457
			c-9.354,4.519-15.398,13.192-25.035,16.891c-9.618,3.691-21.355,0.189-30.925-1.923c-12.635-2.788-26.553-3.512-39.855-2.192
			c-14.627,1.452-25.922,5.053-40.961,1.43c-18.21-4.388-29.788-17.999-49.465-17.544c-12.098,0.28-22.001,6.121-34.004,7.048
			c-11.575,0.893-22.482-2.884-33.596-4.978c-15.615-2.942-32.826-2.112-47.878,1.547c-16.834,4.092-23.208,12.168-36.876,17.965
			c-23.716,10.059-48.166-8.215-72.557-4.162c-7.189,1.195-14.323,3.157-21.634,2.948c-14.513-0.416-19.572-12.797-31.859-17.394
			c-9.803-3.668-22.669-2.516-33.743-0.426c-11.073,2.091-22.17,5.028-33.775,4.535c-14.607-0.621-27.216-6.584-41.747-7.657
			c-13.447-0.992-26.974,2.407-37.427,7.457c-9.354,4.519-15.398,13.192-25.035,16.89c-9.618,3.691-21.355,0.189-30.925-1.922
			c-12.175-2.686-25.225-3.437-38.083-2.309v117.946H750z"/>
		
			<linearGradient id="SVGID_00000157992038965168826170000010668793391849066629_" gradientUnits="userSpaceOnUse" x1="375" y1="617.5582" x2="375" y2="372.6149" gradientTransform="matrix(-1 0 0 1 750 0)">
			<stop  offset="0" style="stop-color:#44408D"/>
			<stop  offset="1" style="stop-color:#1C7EB6"/>
		</linearGradient>
		
			<path style="clip-path:url(#SVGID_00000138555028741435064300000002198935537350642871_);fill:url(#SVGID_00000157992038965168826170000010668793391849066629_);" d="
			M751.289,382.411c-1.711-0.122-3.501-0.115-5.391,0.06c-9.226,0.854-17.641,5.988-26.895,6.131
			c-16.855,0.261-28.829-15.729-45.67-15.922c-9.875-0.113-18.784,5.314-26.237,11.051c-7.453,5.737-14.647,12.226-24.017,15.146
			c-16.353,5.097-30.847-9.445-47.826-9.483c-20.002-0.046-35.955,10.832-47.365,24.359c-8.499,11.417-14.181-1.107-21.809-6.125
			c-11.149-7.335-24.582-6.868-37.667-3.062c-10.833,3.151-18.287,11.734-30.854,10.855c-5.139-0.359-10.062-1.697-15.14-2.393
			c-14.696-2.016-29.603,1.4-44.391,2.994c-18.095,1.951-32.214-0.51-45.065-10.231c-11.821-8.942-22.67-18.913-41.075-18.508
			c-11.339,0.249-21.833,4.844-33.182,4.379c-20.67-0.847-34.795-17.667-55.433-18.968c-12.102-0.763-23.21,4.093-32.545,9.355
			c-9.335,5.262-18.378,11.296-29.965,13.607c-20.222,4.035-37.486-11.499-58.298-12.655c-24.518-1.361-44.45,8.497-58.905,21.31
			c-13.014,13.104-9.53-3.624-24.849-11.472V500h752.578V382.411z"/>
		<g style="clip-path:url(#SVGID_00000138555028741435064300000002198935537350642871_);">
			<g>
				
					<linearGradient id="SVGID_00000145758269125016123020000010806744913005482414_" gradientUnits="userSpaceOnUse" x1="289.2272" y1="465.7077" x2="289.2272" y2="422.4232">
					<stop  offset="0" style="stop-color:#1C7EB6"/>
					<stop  offset="1" style="stop-color:#44408D"/>
				</linearGradient>
				<polygon style="fill:url(#SVGID_00000145758269125016123020000010806744913005482414_);" points="289.227,422.423 
					268.008,465.708 310.447,465.708 				"/>
				
					<linearGradient id="SVGID_00000083080975711139667780000012966232276085525426_" gradientUnits="userSpaceOnUse" x1="173.1902" y1="438.3088" x2="173.1902" y2="379.2473">
					<stop  offset="0" style="stop-color:#1C7EB6"/>
					<stop  offset="1" style="stop-color:#44408D"/>
				</linearGradient>
				<polygon style="fill:url(#SVGID_00000083080975711139667780000012966232276085525426_);" points="173.19,379.247 
					151.971,438.309 194.41,438.309 				"/>
				
					<linearGradient id="SVGID_00000054255128682979987320000018422968454007809180_" gradientUnits="userSpaceOnUse" x1="371.1322" y1="465.7077" x2="371.1322" y2="418.4187">
					<stop  offset="0" style="stop-color:#1C7EB6"/>
					<stop  offset="1" style="stop-color:#44408D"/>
				</linearGradient>
				<polygon style="fill:url(#SVGID_00000054255128682979987320000018422968454007809180_);" points="371.132,418.419 
					349.913,465.708 392.352,465.708 				"/>
				
					<linearGradient id="SVGID_00000126312410872871944070000015355142792162406568_" gradientUnits="userSpaceOnUse" x1="260.0491" y1="465.7077" x2="260.0491" y2="415.8543">
					<stop  offset="0" style="stop-color:#1C7EB6"/>
					<stop  offset="1" style="stop-color:#44408D"/>
				</linearGradient>
				<polygon style="fill:url(#SVGID_00000126312410872871944070000015355142792162406568_);" points="268.9,415.854 238.83,465.708 
					281.268,465.708 				"/>
				
					<linearGradient id="SVGID_00000011723296749159752920000005547911854149889668_" gradientUnits="userSpaceOnUse" x1="386.0733" y1="465.7077" x2="386.0733" y2="423.0782">
					<stop  offset="0" style="stop-color:#1C7EB6"/>
					<stop  offset="1" style="stop-color:#44408D"/>
				</linearGradient>
				<polygon style="fill:url(#SVGID_00000011723296749159752920000005547911854149889668_);" points="382.28,423.078 
					364.854,465.708 407.293,465.708 				"/>
				
					<linearGradient id="SVGID_00000088845587226746771290000004778237436844989583_" gradientUnits="userSpaceOnUse" x1="320.1898" y1="465.7077" x2="320.1898" y2="428.0483">
					<stop  offset="0" style="stop-color:#1C7EB6"/>
					<stop  offset="1" style="stop-color:#44408D"/>
				</linearGradient>
				<polygon style="fill:url(#SVGID_00000088845587226746771290000004778237436844989583_);" points="320.19,428.048 
					298.97,465.708 341.409,465.708 				"/>
				
					<linearGradient id="SVGID_00000175305075876311093670000018132234693853152667_" gradientUnits="userSpaceOnUse" x1="163.3716" y1="465.7077" x2="163.3716" y2="354.8706">
					<stop  offset="0" style="stop-color:#1C7EB6"/>
					<stop  offset="1" style="stop-color:#44408D"/>
				</linearGradient>
				<polygon style="fill:url(#SVGID_00000175305075876311093670000018132234693853152667_);" points="163.372,354.871 
					142.152,465.708 184.591,465.708 				"/>
				
					<linearGradient id="SVGID_00000072961800808736232410000001587131583846513060_" gradientUnits="userSpaceOnUse" x1="142.1523" y1="465.7077" x2="142.1523" y2="397.1842">
					<stop  offset="0" style="stop-color:#1C7EB6"/>
					<stop  offset="1" style="stop-color:#44408D"/>
				</linearGradient>
				<polygon style="fill:url(#SVGID_00000072961800808736232410000001587131583846513060_);" points="142.152,397.184 
					120.933,465.708 163.372,465.708 				"/>
				
					<linearGradient id="SVGID_00000134225244538744299650000004243807516454568879_" gradientUnits="userSpaceOnUse" x1="119.6891" y1="465.7077" x2="119.6891" y2="408.9773">
					<stop  offset="0" style="stop-color:#1C7EB6"/>
					<stop  offset="1" style="stop-color:#44408D"/>
				</linearGradient>
				<polygon style="fill:url(#SVGID_00000134225244538744299650000004243807516454568879_);" points="119.689,408.977 
					98.47,465.708 140.908,465.708 				"/>
				
					<linearGradient id="SVGID_00000060715388842136902570000015153228477429085088_" gradientUnits="userSpaceOnUse" x1="348.2005" y1="465.7077" x2="348.2005" y2="410.9074">
					<stop  offset="0" style="stop-color:#1C7EB6"/>
					<stop  offset="1" style="stop-color:#44408D"/>
				</linearGradient>
				<polygon style="fill:url(#SVGID_00000060715388842136902570000015153228477429085088_);" points="348.201,410.907 
					326.981,465.708 369.42,465.708 				"/>
				
					<linearGradient id="SVGID_00000096744828273549822900000015322522853588408728_" gradientUnits="userSpaceOnUse" x1="413.5707" y1="465.7077" x2="413.5707" y2="405.5327">
					<stop  offset="0" style="stop-color:#1C7EB6"/>
					<stop  offset="1" style="stop-color:#44408D"/>
				</linearGradient>
				<polygon style="fill:url(#SVGID_00000096744828273549822900000015322522853588408728_);" points="417.364,405.533 
					392.352,465.708 434.79,465.708 				"/>
				
					<linearGradient id="SVGID_00000153695228358107566400000008196534745952585118_" gradientUnits="userSpaceOnUse" x1="439.3846" y1="465.7077" x2="439.3846" y2="415.8543">
					<stop  offset="0" style="stop-color:#1C7EB6"/>
					<stop  offset="1" style="stop-color:#44408D"/>
				</linearGradient>
				<polygon style="fill:url(#SVGID_00000153695228358107566400000008196534745952585118_);" points="439.385,415.854 
					418.165,465.708 460.604,465.708 				"/>
				
					<linearGradient id="SVGID_00000132066737924390355730000008922974879910042266_" gradientUnits="userSpaceOnUse" x1="250.0249" y1="465.7077" x2="250.0249" y2="411.102">
					<stop  offset="0" style="stop-color:#1C7EB6"/>
					<stop  offset="1" style="stop-color:#44408D"/>
				</linearGradient>
				<polygon style="fill:url(#SVGID_00000132066737924390355730000008922974879910042266_);" points="250.025,411.102 
					228.806,465.708 271.244,465.708 				"/>
				
					<linearGradient id="SVGID_00000183931254130877471750000001941985328188142244_" gradientUnits="userSpaceOnUse" x1="224.6527" y1="465.7077" x2="224.6527" y2="390.4491">
					<stop  offset="0" style="stop-color:#1C7EB6"/>
					<stop  offset="1" style="stop-color:#44408D"/>
				</linearGradient>
				<polygon style="fill:url(#SVGID_00000183931254130877471750000001941985328188142244_);" points="218.33,390.449 
					203.433,465.708 245.872,465.708 				"/>
				
					<linearGradient id="SVGID_00000085933798556447289290000015387641699172971686_" gradientUnits="userSpaceOnUse" x1="203.4334" y1="465.7077" x2="203.4334" y2="397.3503">
					<stop  offset="0" style="stop-color:#1C7EB6"/>
					<stop  offset="1" style="stop-color:#44408D"/>
				</linearGradient>
				<polygon style="fill:url(#SVGID_00000085933798556447289290000015387641699172971686_);" points="203.433,397.35 
					182.214,465.708 224.653,465.708 				"/>
				
					<linearGradient id="SVGID_00000098924696902605452700000014637858033509128878_" gradientUnits="userSpaceOnUse" x1="188.2253" y1="465.7077" x2="188.2253" y2="385.9102">
					<stop  offset="0" style="stop-color:#1C7EB6"/>
					<stop  offset="1" style="stop-color:#44408D"/>
				</linearGradient>
				<polygon style="fill:url(#SVGID_00000098924696902605452700000014637858033509128878_);" points="192.019,385.91 
					167.006,465.708 209.445,465.708 				"/>
			</g>
			<g>
				
					<linearGradient id="SVGID_00000137108293610920876110000003114149850807797434_" gradientUnits="userSpaceOnUse" x1="99.2174" y1="500" x2="99.2174" y2="438.2451" gradientTransform="matrix(-1 0 0 1 506.5604 0)">
					<stop  offset="0" style="stop-color:#1C7EB6"/>
					<stop  offset="1" style="stop-color:#44408D"/>
				</linearGradient>
				<polygon style="fill:url(#SVGID_00000137108293610920876110000003114149850807797434_);" points="407.343,438.245 428.562,500 
					386.124,500 				"/>
				
					<linearGradient id="SVGID_00000116955179661683820140000005374521752523917219_" gradientUnits="userSpaceOnUse" x1="289.2577" y1="463.8895" x2="289.2577" y2="421.4942" gradientTransform="matrix(-1 0 0 1 506.5604 0)">
					<stop  offset="0" style="stop-color:#1C7EB6"/>
					<stop  offset="1" style="stop-color:#44408D"/>
				</linearGradient>
				<polygon style="fill:url(#SVGID_00000116955179661683820140000005374521752523917219_);" points="217.303,421.494 
					238.522,463.889 196.083,463.889 				"/>
				
					<linearGradient id="SVGID_00000119802172019996363190000002148463510823884183_" gradientUnits="userSpaceOnUse" x1="157.0394" y1="500" x2="157.0394" y2="435.3706" gradientTransform="matrix(-1 0 0 1 506.5604 0)">
					<stop  offset="0" style="stop-color:#1C7EB6"/>
					<stop  offset="1" style="stop-color:#44408D"/>
				</linearGradient>
				<polygon style="fill:url(#SVGID_00000119802172019996363190000002148463510823884183_);" points="349.521,435.371 370.74,500 
					328.302,500 				"/>
				
					<linearGradient id="SVGID_00000117643064634395782120000012912586640593581963_" gradientUnits="userSpaceOnUse" x1="70.0393" y1="500" x2="70.0393" y2="433.5298" gradientTransform="matrix(-1 0 0 1 506.5604 0)">
					<stop  offset="0" style="stop-color:#1C7EB6"/>
					<stop  offset="1" style="stop-color:#44408D"/>
				</linearGradient>
				<polygon style="fill:url(#SVGID_00000117643064634395782120000012912586640593581963_);" points="427.67,433.53 457.74,500 
					415.302,500 				"/>
				
					<linearGradient id="SVGID_00000171715125187286998810000006413837134117285778_" gradientUnits="userSpaceOnUse" x1="171.9805" y1="500" x2="171.9805" y2="438.7153" gradientTransform="matrix(-1 0 0 1 506.5604 0)">
					<stop  offset="0" style="stop-color:#1C7EB6"/>
					<stop  offset="1" style="stop-color:#44408D"/>
				</linearGradient>
				<polygon style="fill:url(#SVGID_00000171715125187286998810000006413837134117285778_);" points="338.373,438.715 355.799,500 
					313.361,500 				"/>
				
					<linearGradient id="SVGID_00000021831512731845392430000016413880507062102151_" gradientUnits="userSpaceOnUse" x1="118.1385" y1="500" x2="118.1385" y2="442.2829" gradientTransform="matrix(-1 0 0 1 506.5604 0)">
					<stop  offset="0" style="stop-color:#1C7EB6"/>
					<stop  offset="1" style="stop-color:#44408D"/>
				</linearGradient>
				<polygon style="fill:url(#SVGID_00000021831512731845392430000016413880507062102151_);" points="388.422,442.283 409.641,500 
					367.203,500 				"/>
				
					<linearGradient id="SVGID_00000167395687178700147510000008959897061625968306_" gradientUnits="userSpaceOnUse" x1="279.4391" y1="500" x2="279.4391" y2="425.5321" gradientTransform="matrix(-1 0 0 1 506.5604 0)">
					<stop  offset="0" style="stop-color:#1C7EB6"/>
					<stop  offset="1" style="stop-color:#44408D"/>
				</linearGradient>
				<polygon style="fill:url(#SVGID_00000167395687178700147510000008959897061625968306_);" points="227.121,425.532 248.341,500 
					205.902,500 				"/>
				
					<linearGradient id="SVGID_00000092417430374400273360000016296654544284180668_" gradientUnits="userSpaceOnUse" x1="258.2198" y1="500" x2="258.2198" y2="434.3696" gradientTransform="matrix(-1 0 0 1 506.5604 0)">
					<stop  offset="0" style="stop-color:#1C7EB6"/>
					<stop  offset="1" style="stop-color:#44408D"/>
				</linearGradient>
				<polygon style="fill:url(#SVGID_00000092417430374400273360000016296654544284180668_);" points="248.341,434.37 269.56,500 
					227.121,500 				"/>
				
					<linearGradient id="SVGID_00000116218355082444419530000009411526339094297738_" gradientUnits="userSpaceOnUse" x1="235.7566" y1="500" x2="235.7566" y2="442.8349" gradientTransform="matrix(-1 0 0 1 506.5604 0)">
					<stop  offset="0" style="stop-color:#1C7EB6"/>
					<stop  offset="1" style="stop-color:#44408D"/>
				</linearGradient>
				<polygon style="fill:url(#SVGID_00000116218355082444419530000009411526339094297738_);" points="270.804,442.835 292.023,500 
					249.585,500 				"/>
				
					<linearGradient id="SVGID_00000176010538053618160330000003440973490654207139_" gradientUnits="userSpaceOnUse" x1="134.1077" y1="500" x2="134.1077" y2="429.9789" gradientTransform="matrix(-1 0 0 1 506.5604 0)">
					<stop  offset="0" style="stop-color:#1C7EB6"/>
					<stop  offset="1" style="stop-color:#44408D"/>
				</linearGradient>
				<polygon style="fill:url(#SVGID_00000176010538053618160330000003440973490654207139_);" points="372.453,429.979 393.672,500 
					351.233,500 				"/>
				
					<linearGradient id="SVGID_00000164495703933092498200000013696662818801055649_" gradientUnits="userSpaceOnUse" x1="199.4779" y1="500" x2="199.4779" y2="428.6797" gradientTransform="matrix(-1 0 0 1 506.5604 0)">
					<stop  offset="0" style="stop-color:#1C7EB6"/>
					<stop  offset="1" style="stop-color:#44408D"/>
				</linearGradient>
				<polygon style="fill:url(#SVGID_00000164495703933092498200000013696662818801055649_);" points="303.289,428.68 328.302,500 
					285.863,500 				"/>
				
					<linearGradient id="SVGID_00000054965781007421446570000004634266697480952467_" gradientUnits="userSpaceOnUse" x1="183.7306" y1="500" x2="183.7306" y2="441.3089" gradientTransform="matrix(-1 0 0 1 506.5604 0)">
					<stop  offset="0" style="stop-color:#1C7EB6"/>
					<stop  offset="1" style="stop-color:#44408D"/>
				</linearGradient>
				<polygon style="fill:url(#SVGID_00000054965781007421446570000004634266697480952467_);" points="319.036,441.309 344.049,500 
					301.611,500 				"/>
				
					<linearGradient id="SVGID_00000047768505345103683270000002034732235397063554_" gradientUnits="userSpaceOnUse" x1="225.2917" y1="500" x2="225.2917" y2="441.9625" gradientTransform="matrix(-1 0 0 1 506.5604 0)">
					<stop  offset="0" style="stop-color:#1C7EB6"/>
					<stop  offset="1" style="stop-color:#44408D"/>
				</linearGradient>
				<polygon style="fill:url(#SVGID_00000047768505345103683270000002034732235397063554_);" points="281.269,441.962 302.488,500 
					260.049,500 				"/>
				
					<linearGradient id="SVGID_00000060011981037482420150000011366310905981992895_" gradientUnits="userSpaceOnUse" x1="354.0508" y1="500" x2="354.0508" y2="423.2785" gradientTransform="matrix(-1 0 0 1 506.5604 0)">
					<stop  offset="0" style="stop-color:#1C7EB6"/>
					<stop  offset="1" style="stop-color:#44408D"/>
				</linearGradient>
				<polygon style="fill:url(#SVGID_00000060011981037482420150000011366310905981992895_);" points="152.509,423.279 173.729,500 
					131.29,500 				"/>
				
					<linearGradient id="SVGID_00000117662817661950963800000009643474607108087439_" gradientUnits="userSpaceOnUse" x1="340.7202" y1="500" x2="340.7202" y2="429.5351" gradientTransform="matrix(-1 0 0 1 506.5604 0)">
					<stop  offset="0" style="stop-color:#1C7EB6"/>
					<stop  offset="1" style="stop-color:#44408D"/>
				</linearGradient>
				<polygon style="fill:url(#SVGID_00000117662817661950963800000009643474607108087439_);" points="172.162,429.535 187.059,500 
					144.621,500 				"/>
				
					<linearGradient id="SVGID_00000005266914646003587730000015727127178484766885_" gradientUnits="userSpaceOnUse" x1="319.5009" y1="500" x2="319.5009" y2="434.4888" gradientTransform="matrix(-1 0 0 1 506.5604 0)">
					<stop  offset="0" style="stop-color:#1C7EB6"/>
					<stop  offset="1" style="stop-color:#44408D"/>
				</linearGradient>
				<polygon style="fill:url(#SVGID_00000005266914646003587730000015727127178484766885_);" points="187.059,434.489 208.279,500 
					165.84,500 				"/>
				
					<linearGradient id="SVGID_00000145043350075652066010000018246954560826152380_" gradientUnits="userSpaceOnUse" x1="304.2928" y1="500" x2="304.2928" y2="426.277" gradientTransform="matrix(-1 0 0 1 506.5604 0)">
					<stop  offset="0" style="stop-color:#1C7EB6"/>
					<stop  offset="1" style="stop-color:#44408D"/>
				</linearGradient>
				<polygon style="fill:url(#SVGID_00000145043350075652066010000018246954560826152380_);" points="198.474,426.277 223.487,500 
					181.048,500 				"/>
			</g>
		</g>
		
			<linearGradient id="SVGID_00000147909790938328913240000011725234747058720151_" gradientUnits="userSpaceOnUse" x1="164.3239" y1="580.3395" x2="13.6597" y2="433.3478" gradientTransform="matrix(0.6983 0.7158 -0.7158 0.6983 379.029 -22.8681)">
			<stop  offset="0" style="stop-color:#84BCEA"/>
			<stop  offset="1" style="stop-color:#1C92DA"/>
		</linearGradient>
		
			<path style="clip-path:url(#SVGID_00000138555028741435064300000002198935537350642871_);fill:url(#SVGID_00000147909790938328913240000011725234747058720151_);" d="
			M-83.685,500h323.874c0.489-2.983,0.285-5.653-1.06-8.191c-3.183-6.007-11.046-8.534-19.981-7.247
			c0.117-0.223,0.244-0.434,0.358-0.66c6.37-12.603,5.711-25.764-1.473-29.396c-7.184-3.631-18.173,3.642-24.543,16.246
			c-0.115,0.228-0.211,0.456-0.322,0.684c-1.252-3.48-3.525-6.252-6.711-7.678c-7.174-3.211-16.357,1.482-21.276,10.562
			c0.301-11.145-3.031-20.15-7.713-20.411c-3.648-0.204-7.078,4.96-8.861,12.506c-2.346-3.544-7.242-5.854-13.046-6.183
			c1.311-1.452,2.325-3.125,2.935-5.013c0.943-2.918,0.841-5.983-0.118-8.947c0.613,0.338,1.242,0.661,1.897,0.958
			c9.271,4.204,19.092,2.527,21.938-3.747c2.834-6.249-2.326-14.698-11.528-18.919c10.849-7.316,16.18-18.495,12.001-26.382
			c-3.089-5.83-10.593-8.363-19.2-7.331c2.532-3.092,3.772-6.75,3.17-10.428c-1.354-8.276-11.48-13.508-22.616-11.685
			c-0.795,0.13-1.568,0.301-2.328,0.494c2.168-7.978,0.146-15.561-5.255-17.978c-5.045-2.258-11.489,0.684-15.989,6.731
			c-0.491-1.893-1.328-3.661-2.569-5.21c-1.917-2.394-4.531-3.997-7.534-4.828c0.619-0.326,1.236-0.673,1.844-1.056
			c8.614-5.424,12.621-14.547,8.951-20.376c-3.656-5.806-13.55-6.151-22.141-0.793c-0.133-13.085-6.531-23.69-15.416-24.544
			c-6.568-0.631-12.813,4.239-16.691,11.991c-1.187-3.817-3.558-6.865-6.96-8.388c-7.655-3.426-17.597,2.146-22.207,12.445
			c-0.349,0.781-0.644,1.566-0.913,2.353c-4.812-6.271-11.679-9.194-16.788-6.612c-4.3,2.172-6.2,7.662-5.391,13.872
			c-5.299-2.977-10.655-3.301-12.706-0.497c-1.179,1.612-1.041,3.953,0.131,6.439c-3.528-1.971-8.267-2.955-13.369-2.481
			c5.749-11.754,4.788-24.103-2.77-28.851c-5.587-3.51-13.353-1.959-20.296,3.231c0.651-3.944-0.101-7.732-2.458-10.619
			c-5.305-6.495-16.69-5.974-25.429,1.163l-1.443,1.047V500z"/>
		
			<linearGradient id="SVGID_00000026885169513325719900000016476900992671799967_" gradientUnits="userSpaceOnUse" x1="293.257" y1="486.0256" x2="293.257" y2="368.5099" gradientTransform="matrix(-0.9894 -0.1449 -0.1449 0.9894 428.6285 78.9091)">
			<stop  offset="0.3352" style="stop-color:#FFFFFF"/>
			<stop  offset="1" style="stop-color:#74B8ED"/>
		</linearGradient>
		
			<path style="clip-path:url(#SVGID_00000138555028741435064300000002198935537350642871_);fill:url(#SVGID_00000026885169513325719900000016476900992671799967_);" d="
			M-50.003,500V397.152c1.535-1.55,3.181-2.562,5.233-2.852c4.858-0.686,9.666,2.836,12.7,8.6c0.08-0.163,0.15-0.326,0.234-0.489
			c4.662-9.062,12.629-14.254,17.795-11.596c5.165,2.658,5.573,12.158,0.911,21.22c-0.084,0.164-0.177,0.317-0.263,0.478
			c2.563-0.743,5.145-0.591,7.329,0.666c4.915,2.83,6.065,10.182,2.847,16.903c6.382-4.898,13.054-6.768,15.191-4.144
			c1.665,2.045,0.102,6.236-3.55,10.475c3.064-0.131,6.488,1.749,9.14,5c0.293-1.381,0.84-2.682,1.684-3.839
			c1.305-1.788,3.138-3.027,5.276-3.722c-0.457-0.215-0.913-0.445-1.364-0.702c-6.384-3.634-9.566-10.081-7.108-14.402
			c2.449-4.303,9.571-4.87,15.936-1.283c-0.324-9.437,3.947-17.288,10.325-18.19c4.715-0.666,9.374,2.644,12.418,8.108
			c0.733-2.79,2.344-5.063,4.748-6.271c5.408-2.716,12.755,0.982,16.409,8.259c0.261,0.519,0.489,1.043,0.698,1.569
			c3.741-4.647,9.027-6.679,12.728-4.549c3.456,1.99,4.469,7.001,2.843,12.192c1.314-0.516,2.701-0.775,4.132-0.707
			c2.211,0.105,4.255,0.953,6.012,2.355c-0.072-0.5-0.131-1.007-0.165-1.525c-0.482-7.33,3.148-13.536,8.109-13.863
			c4.941-0.325,9.335,5.308,9.845,12.597c7.699-5.467,16.605-6.224,20.869-1.396c3.152,3.569,2.954,9.281,0.069,14.831
			c2.732-0.924,5.518-0.831,7.849,0.511c5.245,3.02,6.203,11.188,2.141,18.245c-0.308,0.535-0.642,1.04-0.987,1.531
			c5.702,0.153,10.319,2.926,10.976,7.004c0.553,3.432-1.848,6.868-5.818,9.027c3.984,1.834,6.443,4.825,5.674,7.211
			c-0.442,1.372-1.868,2.283-3.817,2.652c2.646,1.226,5.229,3.577,7.114,6.758c4.43-8.339,12.049-13.01,18.026-10.608
			c4.418,1.776,6.803,6.97,6.713,13.224c2.028-2.051,4.559-3.217,7.244-3.064c6.042,0.346,10.562,7.217,10.096,15.346V500H-50.003z"
			/>
		
			<linearGradient id="SVGID_00000018213108564893292350000002137577798048535939_" gradientUnits="userSpaceOnUse" x1="424.5484" y1="542.284" x2="424.5484" y2="431.7093">
			<stop  offset="0" style="stop-color:#FDFDFD;stop-opacity:0.2368"/>
			<stop  offset="0.7703" style="stop-color:#FDFDFD"/>
		</linearGradient>
		
			<polygon style="clip-path:url(#SVGID_00000138555028741435064300000002198935537350642871_);fill:url(#SVGID_00000018213108564893292350000002137577798048535939_);" points="
			413.953,437.095 405.734,467.107 405.399,494.568 408.431,539.242 422.403,542.284 437.951,539.242 443.698,509.039 
			440.994,469.958 439.303,435.804 424.548,431.709 		"/>
		
			<linearGradient id="SVGID_00000059991988948781297390000012320709929279920057_" gradientUnits="userSpaceOnUse" x1="527.6475" y1="533.5375" x2="527.6475" y2="327.3569" gradientTransform="matrix(0.9894 -0.1449 0.1449 0.9894 -56.4961 78.9091)">
			<stop  offset="0" style="stop-color:#84BCEA"/>
			<stop  offset="1" style="stop-color:#1C92DA"/>
		</linearGradient>
		
			<path style="clip-path:url(#SVGID_00000138555028741435064300000002198935537350642871_);fill:url(#SVGID_00000059991988948781297390000012320709929279920057_);" d="
			M750,500V319.554c-2.694-2.719-5.582-4.495-9.182-5.004c-8.523-1.204-16.958,4.976-22.281,15.089
			c-0.141-0.286-0.264-0.573-0.41-0.858c-8.18-15.899-22.158-25.008-31.221-20.345c-9.063,4.663-9.778,21.332-1.598,37.231
			c0.148,0.287,0.311,0.555,0.462,0.838c-4.497-1.304-9.027-1.036-12.858,1.169c-8.624,4.965-10.642,17.864-4.994,29.657
			c-11.198-8.594-22.903-11.874-26.652-7.271c-2.922,3.587-0.179,10.941,6.228,18.379c-5.376-0.23-11.384,3.069-16.036,8.772
			c-0.514-2.423-1.474-4.706-2.955-6.735c-2.289-3.136-5.506-5.31-9.257-6.531c0.802-0.378,1.601-0.781,2.393-1.232
			c11.201-6.375,16.784-17.688,12.47-25.267c-4.297-7.55-16.792-8.544-27.96-2.251c0.569-16.558-6.925-30.332-18.115-31.913
			c-8.272-1.169-16.446,4.638-21.788,14.226c-1.286-4.894-4.113-8.884-8.33-11.002c-9.489-4.765-22.378,1.722-28.789,14.489
			c-0.458,0.911-0.857,1.831-1.225,2.753c-6.564-8.154-15.838-11.718-22.33-7.981c-6.064,3.491-7.84,12.282-4.989,21.39
			c-2.305-0.905-4.739-1.361-7.249-1.241c-3.878,0.184-7.465,1.672-10.548,4.131c0.127-0.877,0.229-1.766,0.289-2.675
			c0.846-12.86-5.524-23.75-14.227-24.322c-8.668-0.569-16.377,9.314-17.274,22.101c-13.508-9.591-29.133-10.92-36.614-2.449
			c-5.53,6.262-5.183,16.283-0.121,26.02c-4.794-1.621-9.681-1.458-13.771,0.897c-9.202,5.298-10.884,19.629-3.756,32.01
			c0.54,0.939,1.126,1.825,1.732,2.686c-10.004,0.269-18.105,5.134-19.258,12.289c-0.97,6.022,3.242,12.051,10.209,15.838
			c-6.991,3.217-11.305,8.466-9.956,12.652c0.776,2.407,3.277,4.006,6.696,4.654c-4.643,2.15-9.174,6.276-12.482,11.856
			c-7.772-14.631-21.141-22.827-31.626-18.612c-7.751,3.116-11.935,12.228-11.779,23.202c-3.557-3.599-7.998-5.645-12.71-5.375
			c-10.601,0.608-18.531,12.662-17.714,26.925V500H750z"/>
		
			<linearGradient id="SVGID_00000137813492199000893120000004009356024556508553_" gradientUnits="userSpaceOnUse" x1="476.748" y1="533.319" x2="548.3682" y2="451.505" gradientTransform="matrix(0.7524 -0.6587 0.6587 0.7524 -215.9272 427.7271)">
			<stop  offset="0.3352" style="stop-color:#FFFFFF"/>
			<stop  offset="1" style="stop-color:#74B8ED"/>
		</linearGradient>
		
			<path style="clip-path:url(#SVGID_00000138555028741435064300000002198935537350642871_);fill:url(#SVGID_00000137813492199000893120000004009356024556508553_);" d="
			M377.765,514.958h237.481v-76.062c1.161-6.574-1.504-12.54-5.952-13.326c-3.821-0.675-7.708,2.697-9.467,7.826
			c-0.342-0.384-0.699-0.762-1.082-1.125c-5.374-5.087-12.796-5.972-16.576-1.978c-1.68,1.775-2.353,4.217-2.116,6.827
			c-2.338-2.03-4.887-3.358-7.342-3.826c0.859-1.396,1.113-2.78,0.551-3.867c-1.046-2.023-4.55-2.353-8.284-0.958
			c1.15-3.943,0.471-7.691-2.096-9.532c-3.269-2.343-8.482-0.798-12.331,3.396c0.447-6.238-2.023-11.498-6.059-12.269
			c-3.767-0.72-7.707,2.699-9.749,8.006c-0.296-5.575-2.715-10.062-6.76-11.427c-5.068-1.711-11.08,2.006-14.819,8.606
			c-4.42-5.22-10.614-7.315-14.627-4.642c-4.483,2.985-4.54,10.775-0.129,17.399c1.07,1.607,2.307,2.993,3.628,4.135
			c-1.468-0.001-2.898,0.302-4.215,0.979c-1.158,0.594-2.133,1.427-2.935,2.429c-1.071-4.826-4.138-8.315-7.763-8.316
			c-3.88-0.002-7.124,3.993-7.966,9.349c-0.403-0.319-0.82-0.629-1.261-0.92c-6.175-4.077-13.638-3.662-16.668,0.927
			c-1.347,2.04-1.586,4.561-0.9,7.091c-4.874-2.926-10.044-3.423-13.456-0.762c-4.616,3.599-4.425,11.719,0.106,19.007
			c-6.639,0.058-11.993,3.73-11.973,8.23c0.02,4.517,5.448,8.155,12.123,8.126c0.472-0.002,0.935-0.027,1.392-0.065
			c-1.369,1.516-2.252,3.323-2.47,5.323c-0.141,1.294,0.017,2.567,0.412,3.787c-3.562-1.36-7.111-1.29-9.466,0.202
			c0.957-4.994,0.29-9.004-1.948-9.861c-2.872-1.099-7.281,3.396-10.09,10.146c-0.509-6.753-4.745-12.024-9.9-12.027
			c-2.289-0.001-4.392,1.048-6.075,2.795c-0.005-0.166-0.001-0.329-0.009-0.496c-0.432-9.251-5.057-16.551-10.33-16.305
			c-5.273,0.246-9.198,7.945-8.766,17.196c0.008,0.166,0.027,0.326,0.037,0.491c-5.001-3.167-10.384-3.764-13.901-1.022
			c-5.126,3.996-4.342,13.572,1.751,21.387V514.958z M511.288,435.705c0.173,0.358,0.36,0.702,0.561,1.031
			c-0.343-0.346-0.695-0.675-1.055-0.985C510.961,435.744,511.123,435.721,511.288,435.705z"/>
		<g style="clip-path:url(#SVGID_00000138555028741435064300000002198935537350642871_);">
			<g>
				<path style="fill:#992B3B;" d="M640.258,400.711l6.027-8.781l-22.812,2.23c-67.402-27.233-9.957,4.121-27.318-20.703h-13.852
					c0,0-2.529,23.314,7.203,17.194C594.955,402.782,630.996,404.524,640.258,400.711z"/>
				<path style="fill:#BA3A47;" d="M589.505,390.651v-8.178l5.45,3.544c-6.374-3.12-11.409-11.296-12.512-12.56h-14.71
					c-17.452,11.716-30.998,16.976-43.242,19.101l-19.148-5.149l6.027,9.986C524.233,401.938,575.845,404.531,589.505,390.651z"/>
				<g>
					<rect x="579.907" y="380.931" style="fill:#DDD3D4;" width="48.951" height="60.441"/>
					<rect x="519.222" y="380.931" style="fill:#FDFDFD;" width="60.685" height="60.441"/>
				</g>
				<g>
					<rect x="544.406" y="413.526" style="fill:#272747;" width="9.651" height="26.091"/>
					<rect x="541.441" y="413.526" style="fill:#FFBA78;" width="2.965" height="26.091"/>
					<rect x="554.056" y="413.526" style="fill:#FFBA78;" width="2.965" height="26.091"/>
				</g>
				
					<rect x="561.001" y="412.942" transform="matrix(-1.836970e-16 1 -1 -1.836970e-16 981.3924 -147.475)" style="fill:#FFBA78;" width="6.866" height="8.033"/>
				
					<rect x="530.758" y="412.942" transform="matrix(-1.836970e-16 1 -1 -1.836970e-16 951.1495 -117.2321)" style="fill:#FFBA78;" width="6.866" height="8.033"/>
				<g>
					<rect x="519.222" y="380.931" style="fill:#BA3A47;" width="8.508" height="60.441"/>
					<rect x="571.4" y="380.931" style="fill:#BA3A47;" width="8.508" height="60.441"/>
					<rect x="519.222" y="399.21" style="fill:#BA3A47;" width="60.948" height="4.413"/>
					
						<rect x="543.559" y="393.333" transform="matrix(-1.836970e-16 1 -1 -1.836970e-16 945.2357 -154.1559)" style="fill:#BA3A47;" width="12.273" height="4.413"/>
				</g>
				<g>
					<rect x="620.351" y="380.931" style="fill:#992B3B;" width="8.508" height="60.441"/>
					<rect x="579.907" y="380.931" style="fill:#992B3B;" width="8.508" height="60.441"/>
					<rect x="580.17" y="399.21" style="fill:#992B3B;" width="48.689" height="4.413"/>
				</g>
				<g>
					<path style="fill:#BA3A47;" d="M651.517,394.208l7.091-10.332l-26.841,2.624c-79.304-32.043-11.715,4.849-32.143-24.359
						h-16.298c0,0-2.976,27.431,8.475,20.23C598.213,396.645,640.619,398.695,651.517,394.208z"/>
					<path style="fill:#FF4E53;" d="M591.801,382.371v-9.622l6.412,4.17c-7.5-3.671-13.424-13.291-14.721-14.778h-17.308
						c-20.533,13.785-36.472,19.974-50.878,22.474l-22.529-6.058l7.091,11.75C515.002,395.651,575.728,398.703,591.801,382.371z"/>
					<path style="fill:#0D0D1E;" d="M663.029,384.57v-8.102l-29.013,2.836c-22.761-9.196-34.744-26.331-34.744-26.331h-17.617
						c0,0-2.069,27.179,10.308,19.396C596.657,390.873,651.399,391.767,663.029,384.57z"/>
					<path style="fill:#1C1C35;" d="M591.962,372.369v-8.102l5.783,4.68c-8.106-3.968-14.51-14.367-15.912-15.974h-18.709
						c-22.195,14.901-39.424,21.591-54.995,24.293l-24.352-6.548v8.102C500.564,390.275,577.194,393.894,591.962,372.369z"/>
					<path style="fill:#1C1C35;" d="M663.029,376.468c-26.536,4.654-67.303-31.597-67.303-31.597h-14.072
						c0,0-2.069,27.179,10.308,19.396C596.657,382.771,651.399,383.665,663.029,376.468z"/>
					<path style="fill:#272747;" d="M591.962,364.268c-11.773,2.494-10.129-19.396-10.129-19.396h-18.709
						c-34.209,22.967-56.621,26.427-79.348,25.846C500.564,382.173,577.194,385.793,591.962,364.268z"/>
				</g>
				<g>
					
						<rect x="510.865" y="427.414" transform="matrix(-1 -1.224647e-16 1.224647e-16 -1 1090.7722 856.925)" style="fill:#FF4E53;" width="69.042" height="2.097"/>
					
						<rect x="510.865" y="433.609" transform="matrix(-1 -1.224647e-16 1.224647e-16 -1 1090.7722 869.3149)" style="fill:#FF4E53;" width="69.042" height="2.097"/>
					
						<rect x="510.865" y="439.275" transform="matrix(-1 -1.224647e-16 1.224647e-16 -1 1090.7722 880.6472)" style="fill:#FF4E53;" width="69.042" height="2.097"/>
					
						<rect x="555.233" y="428.462" transform="matrix(-1 -1.224647e-16 1.224647e-16 -1 1112.9561 869.8346)" style="fill:#FF4E53;" width="2.49" height="12.91"/>
					
						<rect x="577.417" y="428.462" transform="matrix(-1 -1.224647e-16 1.224647e-16 -1 1157.3239 869.8346)" style="fill:#FF4E53;" width="2.49" height="12.91"/>
					
						<rect x="533.049" y="428.462" transform="matrix(-1 -1.224647e-16 1.224647e-16 -1 1068.5885 869.8346)" style="fill:#FF4E53;" width="2.49" height="12.91"/>
					
						<rect x="510.865" y="428.462" transform="matrix(-1 -1.224647e-16 1.224647e-16 -1 1024.2207 869.8346)" style="fill:#FF4E53;" width="2.49" height="12.91"/>
				</g>
				<g>
					
						<rect x="579.907" y="427.414" transform="matrix(-1 -1.224647e-16 1.224647e-16 -1 1216.0919 856.925)" style="fill:#BA3A47;" width="56.278" height="2.097"/>
					
						<rect x="579.907" y="433.609" transform="matrix(-1 -1.224647e-16 1.224647e-16 -1 1216.0919 869.3149)" style="fill:#BA3A47;" width="56.278" height="2.097"/>
					
						<rect x="579.907" y="439.275" transform="matrix(-1 -1.224647e-16 1.224647e-16 -1 1216.0919 880.6472)" style="fill:#BA3A47;" width="56.278" height="2.097"/>
					
						<rect x="615.765" y="428.462" transform="matrix(-1 -1.224647e-16 1.224647e-16 -1 1234.021 869.8346)" style="fill:#BA3A47;" width="2.491" height="12.91"/>
					
						<rect x="633.694" y="428.462" transform="matrix(-1 -1.224647e-16 1.224647e-16 -1 1269.879 869.8346)" style="fill:#BA3A47;" width="2.49" height="12.91"/>
					
						<rect x="597.836" y="428.462" transform="matrix(-1 -1.224647e-16 1.224647e-16 -1 1198.1628 869.8346)" style="fill:#BA3A47;" width="2.49" height="12.91"/>
					
						<rect x="579.907" y="428.462" transform="matrix(-1 -1.224647e-16 1.224647e-16 -1 1162.3048 869.8346)" style="fill:#BA3A47;" width="2.49" height="12.91"/>
				</g>
			</g>
			<g>
				<path style="fill:#992B3B;" d="M640.258,325.971l6.027-8.781l-22.812,2.23c-67.402-27.233-9.957,4.121-27.318-20.703h-13.852
					c0,0-2.529,23.314,7.203,17.194C594.955,328.042,630.996,329.784,640.258,325.971z"/>
				<path style="fill:#BA3A47;" d="M589.505,315.91v-8.178l5.45,3.544c-6.374-3.12-11.409-11.296-12.512-12.56h-14.71
					c-17.452,11.716-30.998,16.976-43.242,19.101l-19.148-5.149l6.027,9.986C524.233,327.197,575.845,329.79,589.505,315.91z"/>
				<g>
					<rect x="579.907" y="306.19" style="fill:#DDD3D4;" width="48.951" height="60.441"/>
					<rect x="519.222" y="306.19" style="fill:#FDFDFD;" width="60.685" height="60.441"/>
				</g>
				<g>
					<rect x="544.406" y="338.785" style="fill:#272747;" width="9.651" height="26.091"/>
					<rect x="541.441" y="338.785" style="fill:#FFBA78;" width="2.965" height="26.091"/>
					<rect x="554.056" y="338.785" style="fill:#FFBA78;" width="2.965" height="26.091"/>
				</g>
				
					<rect x="561.001" y="338.201" transform="matrix(-1.836970e-16 1 -1 -1.836970e-16 906.6518 -222.2156)" style="fill:#FFBA78;" width="6.866" height="8.033"/>
				
					<rect x="530.758" y="338.201" transform="matrix(-1.836970e-16 1 -1 -1.836970e-16 876.4089 -191.9727)" style="fill:#FFBA78;" width="6.866" height="8.033"/>
				<g>
					<rect x="519.222" y="306.19" style="fill:#BA3A47;" width="8.508" height="60.441"/>
					<rect x="571.4" y="306.19" style="fill:#BA3A47;" width="8.508" height="60.441"/>
					<rect x="519.222" y="324.47" style="fill:#BA3A47;" width="60.948" height="4.413"/>
					
						<rect x="543.559" y="318.593" transform="matrix(-1.836970e-16 1 -1 -1.836970e-16 870.4951 -228.8965)" style="fill:#BA3A47;" width="12.273" height="4.413"/>
				</g>
				<g>
					<rect x="620.351" y="306.19" style="fill:#992B3B;" width="8.508" height="60.441"/>
					<rect x="579.907" y="306.19" style="fill:#992B3B;" width="8.508" height="60.441"/>
					<rect x="580.17" y="324.47" style="fill:#992B3B;" width="48.689" height="4.413"/>
				</g>
				<g>
					<path style="fill:#BA3A47;" d="M651.517,319.468l7.091-10.332l-26.841,2.624c-79.304-32.043-11.715,4.849-32.143-24.359
						h-16.298c0,0-2.976,27.431,8.475,20.23C598.213,321.904,640.619,323.954,651.517,319.468z"/>
					<path style="fill:#FF4E53;" d="M591.801,307.631v-9.622l6.412,4.17c-7.5-3.671-13.424-13.291-14.721-14.778h-17.308
						c-20.533,13.785-36.472,19.974-50.878,22.474l-22.529-6.058l7.091,11.75C515.002,320.91,575.728,323.962,591.801,307.631z"/>
					<path style="fill:#0D0D1E;" d="M663.029,309.829v-8.102l-29.013,2.836c-22.761-9.197-34.744-26.331-34.744-26.331h-17.617
						c0,0-2.069,27.179,10.308,19.396C596.657,316.132,651.399,317.026,663.029,309.829z"/>
					<path style="fill:#1C1C35;" d="M591.962,297.629v-8.102l5.783,4.68c-8.106-3.968-14.51-14.367-15.912-15.974h-18.709
						c-22.195,14.901-39.424,21.591-54.995,24.293l-24.352-6.548v8.102C500.564,315.534,577.194,319.154,591.962,297.629z"/>
					<path style="fill:#1C1C35;" d="M663.029,301.728c-26.536,4.655-67.303-31.596-67.303-31.596h-14.072
						c0,0-2.069,27.179,10.308,19.396C596.657,308.031,651.399,308.925,663.029,301.728z"/>
					<path style="fill:#272747;" d="M591.962,289.527c-11.773,2.494-10.129-19.396-10.129-19.396h-18.709
						c-34.209,22.967-56.621,26.427-79.348,25.846C500.564,307.432,577.194,311.052,591.962,289.527z"/>
				</g>
				<g>
					
						<rect x="510.865" y="352.673" transform="matrix(-1 -1.224647e-16 1.224647e-16 -1 1090.7722 707.4437)" style="fill:#FF4E53;" width="69.042" height="2.097"/>
					
						<rect x="510.865" y="358.868" transform="matrix(-1 -1.224647e-16 1.224647e-16 -1 1090.7722 719.8336)" style="fill:#FF4E53;" width="69.042" height="2.097"/>
					
						<rect x="510.865" y="364.534" transform="matrix(-1 -1.224647e-16 1.224647e-16 -1 1090.7722 731.166)" style="fill:#FF4E53;" width="69.042" height="2.097"/>
					
						<rect x="555.233" y="353.722" transform="matrix(-1 -1.224647e-16 1.224647e-16 -1 1112.9561 720.3534)" style="fill:#FF4E53;" width="2.49" height="12.91"/>
					
						<rect x="577.417" y="353.722" transform="matrix(-1 -1.224647e-16 1.224647e-16 -1 1157.3239 720.3534)" style="fill:#FF4E53;" width="2.49" height="12.91"/>
					
						<rect x="533.049" y="353.722" transform="matrix(-1 -1.224647e-16 1.224647e-16 -1 1068.5885 720.3534)" style="fill:#FF4E53;" width="2.49" height="12.91"/>
					
						<rect x="510.865" y="353.722" transform="matrix(-1 -1.224647e-16 1.224647e-16 -1 1024.2207 720.3534)" style="fill:#FF4E53;" width="2.49" height="12.91"/>
				</g>
				<g>
					
						<rect x="579.907" y="352.673" transform="matrix(-1 -1.224647e-16 1.224647e-16 -1 1216.0919 707.4437)" style="fill:#BA3A47;" width="56.278" height="2.097"/>
					
						<rect x="579.907" y="358.868" transform="matrix(-1 -1.224647e-16 1.224647e-16 -1 1216.0919 719.8336)" style="fill:#BA3A47;" width="56.278" height="2.097"/>
					
						<rect x="579.907" y="364.534" transform="matrix(-1 -1.224647e-16 1.224647e-16 -1 1216.0919 731.166)" style="fill:#BA3A47;" width="56.278" height="2.097"/>
					
						<rect x="615.765" y="353.722" transform="matrix(-1 -1.224647e-16 1.224647e-16 -1 1234.021 720.3534)" style="fill:#BA3A47;" width="2.491" height="12.91"/>
					
						<rect x="633.694" y="353.722" transform="matrix(-1 -1.224647e-16 1.224647e-16 -1 1269.879 720.3534)" style="fill:#BA3A47;" width="2.49" height="12.91"/>
					
						<rect x="597.836" y="353.722" transform="matrix(-1 -1.224647e-16 1.224647e-16 -1 1198.1628 720.3534)" style="fill:#BA3A47;" width="2.49" height="12.91"/>
					
						<rect x="579.907" y="353.722" transform="matrix(-1 -1.224647e-16 1.224647e-16 -1 1162.3048 720.3534)" style="fill:#BA3A47;" width="2.49" height="12.91"/>
				</g>
			</g>
			<g>
				<path style="fill:#992B3B;" d="M640.258,251.23l6.027-8.781l-22.812,2.23c-67.402-27.234-9.957,4.121-27.318-20.703h-13.852
					c0,0-2.529,23.314,7.203,17.194C594.955,253.301,630.996,255.043,640.258,251.23z"/>
				<path style="fill:#BA3A47;" d="M589.505,241.17v-8.178l5.45,3.544c-6.374-3.12-11.409-11.296-12.512-12.56h-14.71
					c-17.452,11.717-30.998,16.976-43.242,19.101l-19.148-5.149l6.027,9.986C524.233,252.456,575.845,255.05,589.505,241.17z"/>
				<g>
					<rect x="579.907" y="231.449" style="fill:#DDD3D4;" width="48.951" height="60.442"/>
					<rect x="519.222" y="231.449" style="fill:#FDFDFD;" width="60.685" height="60.442"/>
				</g>
				<g>
					<rect x="544.406" y="264.044" style="fill:#272747;" width="9.651" height="26.091"/>
					<rect x="541.441" y="264.044" style="fill:#FFBA78;" width="2.965" height="26.091"/>
					<rect x="554.056" y="264.044" style="fill:#FFBA78;" width="2.965" height="26.091"/>
				</g>
				
					<rect x="561.001" y="263.461" transform="matrix(-1.836970e-16 1 -1 -1.836970e-16 831.9111 -296.9562)" style="fill:#FFBA78;" width="6.866" height="8.033"/>
				
					<rect x="530.758" y="263.461" transform="matrix(-1.836970e-16 1 -1 -1.836970e-16 801.6682 -266.7133)" style="fill:#FFBA78;" width="6.866" height="8.033"/>
				<g>
					<rect x="519.222" y="231.449" style="fill:#BA3A47;" width="8.508" height="60.442"/>
					<rect x="571.4" y="231.449" style="fill:#BA3A47;" width="8.508" height="60.442"/>
					<rect x="519.222" y="249.729" style="fill:#BA3A47;" width="60.948" height="4.413"/>
					
						<rect x="543.559" y="243.852" transform="matrix(-1.836970e-16 1 -1 -1.836970e-16 795.7544 -303.6372)" style="fill:#BA3A47;" width="12.273" height="4.413"/>
				</g>
				<g>
					<rect x="620.351" y="231.449" style="fill:#992B3B;" width="8.508" height="60.442"/>
					<rect x="579.907" y="231.449" style="fill:#992B3B;" width="8.508" height="60.442"/>
					<rect x="580.17" y="249.729" style="fill:#992B3B;" width="48.689" height="4.413"/>
				</g>
				<g>
					<path style="fill:#BA3A47;" d="M651.517,244.727l7.091-10.332l-26.841,2.624c-79.304-32.043-11.715,4.849-32.143-24.359
						h-16.298c0,0-2.976,27.431,8.475,20.23C598.213,247.164,640.619,249.213,651.517,244.727z"/>
					<path style="fill:#FF4E53;" d="M591.801,232.89v-9.623l6.412,4.17c-7.5-3.671-13.424-13.291-14.721-14.778h-17.308
						c-20.533,13.786-36.472,19.974-50.878,22.474l-22.529-6.058l7.091,11.75C515.002,246.17,575.728,249.221,591.801,232.89z"/>
					<path style="fill:#0D0D1E;" d="M663.029,235.089v-8.102l-29.013,2.836c-22.761-9.196-34.744-26.331-34.744-26.331h-17.617
						c0,0-2.069,27.179,10.308,19.396C596.657,241.392,651.399,242.286,663.029,235.089z"/>
					<path style="fill:#1C1C35;" d="M591.962,222.888v-8.102l5.783,4.68c-8.106-3.968-14.51-14.367-15.912-15.974h-18.709
						c-22.195,14.901-39.424,21.591-54.995,24.293l-24.352-6.548v8.102C500.564,240.793,577.194,244.413,591.962,222.888z"/>
					<path style="fill:#1C1C35;" d="M663.029,226.987c-26.536,4.654-67.303-31.597-67.303-31.597h-14.072
						c0,0-2.069,27.179,10.308,19.396C596.657,233.29,651.399,234.184,663.029,226.987z"/>
					<path style="fill:#272747;" d="M591.962,214.786c-11.773,2.494-10.129-19.396-10.129-19.396h-18.709
						c-34.209,22.967-56.621,26.427-79.348,25.846C500.564,232.692,577.194,236.311,591.962,214.786z"/>
				</g>
				<g>
					
						<rect x="510.865" y="277.933" transform="matrix(-1 -1.224647e-16 1.224647e-16 -1 1090.7722 557.9625)" style="fill:#FF4E53;" width="69.042" height="2.097"/>
					
						<rect x="510.865" y="284.128" transform="matrix(-1 -1.224647e-16 1.224647e-16 -1 1090.7722 570.3523)" style="fill:#FF4E53;" width="69.042" height="2.097"/>
					
						<rect x="510.865" y="289.794" transform="matrix(-1 -1.224647e-16 1.224647e-16 -1 1090.7722 581.6847)" style="fill:#FF4E53;" width="69.042" height="2.097"/>
					
						<rect x="555.233" y="278.981" transform="matrix(-1 -1.224647e-16 1.224647e-16 -1 1112.9561 570.8721)" style="fill:#FF4E53;" width="2.49" height="12.91"/>
					
						<rect x="577.417" y="278.981" transform="matrix(-1 -1.224647e-16 1.224647e-16 -1 1157.3239 570.8721)" style="fill:#FF4E53;" width="2.49" height="12.91"/>
					
						<rect x="533.049" y="278.981" transform="matrix(-1 -1.224647e-16 1.224647e-16 -1 1068.5885 570.8721)" style="fill:#FF4E53;" width="2.49" height="12.91"/>
					
						<rect x="510.865" y="278.981" transform="matrix(-1 -1.224647e-16 1.224647e-16 -1 1024.2207 570.8721)" style="fill:#FF4E53;" width="2.49" height="12.91"/>
				</g>
				<g>
					
						<rect x="579.907" y="277.933" transform="matrix(-1 -1.224647e-16 1.224647e-16 -1 1216.0919 557.9625)" style="fill:#BA3A47;" width="56.278" height="2.097"/>
					
						<rect x="579.907" y="284.128" transform="matrix(-1 -1.224647e-16 1.224647e-16 -1 1216.0919 570.3523)" style="fill:#BA3A47;" width="56.278" height="2.097"/>
					
						<rect x="579.907" y="289.794" transform="matrix(-1 -1.224647e-16 1.224647e-16 -1 1216.0919 581.6847)" style="fill:#BA3A47;" width="56.278" height="2.097"/>
					
						<rect x="615.765" y="278.981" transform="matrix(-1 -1.224647e-16 1.224647e-16 -1 1234.021 570.8721)" style="fill:#BA3A47;" width="2.491" height="12.91"/>
					
						<rect x="633.694" y="278.981" transform="matrix(-1 -1.224647e-16 1.224647e-16 -1 1269.879 570.8721)" style="fill:#BA3A47;" width="2.49" height="12.91"/>
					
						<rect x="597.836" y="278.981" transform="matrix(-1 -1.224647e-16 1.224647e-16 -1 1198.1628 570.8721)" style="fill:#BA3A47;" width="2.49" height="12.91"/>
					
						<rect x="579.907" y="278.981" transform="matrix(-1 -1.224647e-16 1.224647e-16 -1 1162.3048 570.8721)" style="fill:#BA3A47;" width="2.49" height="12.91"/>
				</g>
			</g>
			<g>
				<path style="fill:#992B3B;" d="M640.258,176.49l6.027-8.781l-22.812,2.23c-67.402-27.233-9.957,4.121-27.318-20.703h-13.852
					c0,0-2.529,23.314,7.203,17.194C594.955,178.56,630.996,180.302,640.258,176.49z"/>
				<path style="fill:#BA3A47;" d="M589.505,166.429v-8.178l5.45,3.544c-6.374-3.12-11.409-11.296-12.512-12.56h-14.71
					c-17.452,11.716-30.998,16.976-43.242,19.101l-19.148-5.149l6.027,9.986C524.233,177.716,575.845,180.309,589.505,166.429z"/>
				<g>
					<rect x="579.907" y="156.709" style="fill:#DDD3D4;" width="48.951" height="60.441"/>
					<rect x="519.222" y="156.709" style="fill:#FDFDFD;" width="60.685" height="60.441"/>
				</g>
				<g>
					<rect x="544.406" y="189.304" style="fill:#272747;" width="9.651" height="26.091"/>
					<rect x="541.441" y="189.304" style="fill:#FFBA78;" width="2.965" height="26.091"/>
					<rect x="554.056" y="189.304" style="fill:#FFBA78;" width="2.965" height="26.091"/>
				</g>
				
					<rect x="561.001" y="188.72" transform="matrix(-1.836970e-16 1 -1 -1.836970e-16 757.1705 -371.6969)" style="fill:#FFBA78;" width="6.866" height="8.033"/>
				
					<rect x="530.758" y="188.72" transform="matrix(-1.836970e-16 1 -1 -1.836970e-16 726.9276 -341.454)" style="fill:#FFBA78;" width="6.866" height="8.033"/>
				<g>
					<rect x="519.222" y="156.709" style="fill:#BA3A47;" width="8.508" height="60.441"/>
					<rect x="571.4" y="156.709" style="fill:#BA3A47;" width="8.508" height="60.441"/>
					<rect x="519.222" y="174.988" style="fill:#BA3A47;" width="60.948" height="4.413"/>
					
						<rect x="543.559" y="169.112" transform="matrix(-1.836970e-16 1 -1 -1.836970e-16 721.0137 -378.3778)" style="fill:#BA3A47;" width="12.273" height="4.413"/>
				</g>
				<g>
					<rect x="620.351" y="156.709" style="fill:#992B3B;" width="8.508" height="60.441"/>
					<rect x="579.907" y="156.709" style="fill:#992B3B;" width="8.508" height="60.441"/>
					<rect x="580.17" y="174.988" style="fill:#992B3B;" width="48.689" height="4.413"/>
				</g>
				<g>
					<path style="fill:#BA3A47;" d="M651.517,169.986l7.091-10.332l-26.841,2.623c-79.304-32.043-11.715,4.849-32.143-24.359
						h-16.298c0,0-2.976,27.431,8.475,20.23C598.213,172.423,640.619,174.473,651.517,169.986z"/>
					<path style="fill:#FF4E53;" d="M591.801,158.149v-9.622l6.412,4.17c-7.5-3.671-13.424-13.291-14.721-14.778h-17.308
						c-20.533,13.785-36.472,19.974-50.878,22.474l-22.529-6.058l7.091,11.75C515.002,171.429,575.728,174.481,591.801,158.149z"/>
					<path style="fill:#0D0D1E;" d="M663.029,160.348v-8.102l-29.013,2.836c-22.761-9.196-34.744-26.331-34.744-26.331h-17.617
						c0,0-2.069,27.179,10.308,19.396C596.657,166.651,651.399,167.545,663.029,160.348z"/>
					<path style="fill:#1C1C35;" d="M591.962,148.148v-8.102l5.783,4.68c-8.106-3.968-14.51-14.367-15.912-15.974h-18.709
						c-22.195,14.901-39.424,21.591-54.995,24.293l-24.352-6.548v8.102C500.564,166.053,577.194,169.673,591.962,148.148z"/>
					<path style="fill:#1C1C35;" d="M663.029,152.247c-26.536,4.654-67.303-31.597-67.303-31.597h-14.072
						c0,0-2.069,27.179,10.308,19.396C596.657,158.549,651.399,159.443,663.029,152.247z"/>
					<path style="fill:#272747;" d="M591.962,140.046c-11.773,2.494-10.129-19.396-10.129-19.396h-18.709
						c-34.209,22.967-56.621,26.427-79.348,25.846C500.564,157.951,577.194,161.571,591.962,140.046z"/>
				</g>
				<g>
					
						<rect x="510.865" y="203.192" transform="matrix(-1 -1.224647e-16 1.224647e-16 -1 1090.7722 408.4812)" style="fill:#FF4E53;" width="69.042" height="2.097"/>
					
						<rect x="510.865" y="209.387" transform="matrix(-1 -1.224647e-16 1.224647e-16 -1 1090.7722 420.8711)" style="fill:#FF4E53;" width="69.042" height="2.097"/>
					
						<rect x="510.865" y="215.053" transform="matrix(-1 -1.224647e-16 1.224647e-16 -1 1090.7722 432.2034)" style="fill:#FF4E53;" width="69.042" height="2.097"/>
					
						<rect x="555.233" y="204.241" transform="matrix(-1 -1.224647e-16 1.224647e-16 -1 1112.9561 421.3908)" style="fill:#FF4E53;" width="2.49" height="12.91"/>
					
						<rect x="577.417" y="204.241" transform="matrix(-1 -1.224647e-16 1.224647e-16 -1 1157.3239 421.3908)" style="fill:#FF4E53;" width="2.49" height="12.91"/>
					
						<rect x="533.049" y="204.241" transform="matrix(-1 -1.224647e-16 1.224647e-16 -1 1068.5885 421.3908)" style="fill:#FF4E53;" width="2.49" height="12.91"/>
					
						<rect x="510.865" y="204.241" transform="matrix(-1 -1.224647e-16 1.224647e-16 -1 1024.2207 421.3908)" style="fill:#FF4E53;" width="2.49" height="12.91"/>
				</g>
				<g>
					
						<rect x="579.907" y="203.192" transform="matrix(-1 -1.224647e-16 1.224647e-16 -1 1216.0919 408.4812)" style="fill:#BA3A47;" width="56.278" height="2.097"/>
					
						<rect x="579.907" y="209.387" transform="matrix(-1 -1.224647e-16 1.224647e-16 -1 1216.0919 420.8711)" style="fill:#BA3A47;" width="56.278" height="2.097"/>
					
						<rect x="579.907" y="215.053" transform="matrix(-1 -1.224647e-16 1.224647e-16 -1 1216.0919 432.2034)" style="fill:#BA3A47;" width="56.278" height="2.097"/>
					
						<rect x="615.765" y="204.241" transform="matrix(-1 -1.224647e-16 1.224647e-16 -1 1234.021 421.3908)" style="fill:#BA3A47;" width="2.491" height="12.91"/>
					
						<rect x="633.694" y="204.241" transform="matrix(-1 -1.224647e-16 1.224647e-16 -1 1269.879 421.3908)" style="fill:#BA3A47;" width="2.49" height="12.91"/>
					
						<rect x="597.836" y="204.241" transform="matrix(-1 -1.224647e-16 1.224647e-16 -1 1198.1628 421.3908)" style="fill:#BA3A47;" width="2.49" height="12.91"/>
					
						<rect x="579.907" y="204.241" transform="matrix(-1 -1.224647e-16 1.224647e-16 -1 1162.3048 421.3908)" style="fill:#BA3A47;" width="2.49" height="12.91"/>
				</g>
			</g>
			<rect x="563.125" y="115.768" style="fill:#272747;" width="32.601" height="4.882"/>
			<rect x="566.888" y="110.886" style="fill:#272747;" width="25.074" height="4.882"/>
			<rect x="571.536" y="106.005" style="fill:#272747;" width="15.778" height="4.882"/>
			<rect x="577.326" y="49.402" style="fill:#272747;" width="4.198" height="56.602"/>
			<g>
				<rect x="501.46" y="441.503" style="fill:#272747;" width="231.31" height="4.972"/>
				<rect x="495.348" y="446.475" style="fill:#272747;" width="237.423" height="4.972"/>
				<rect x="489.235" y="451.447" style="fill:#272747;" width="243.536" height="4.972"/>
				<rect x="483.122" y="456.419" style="fill:#272747;" width="249.649" height="4.972"/>
				<rect x="477.009" y="461.391" style="fill:#272747;" width="255.762" height="4.972"/>
				<rect x="470.896" y="466.363" style="fill:#272747;" width="261.874" height="4.972"/>
				<rect x="464.784" y="471.335" style="fill:#272747;" width="267.987" height="4.972"/>
				<rect x="458.671" y="476.307" style="fill:#272747;" width="274.1" height="4.972"/>
				<rect x="452.558" y="481.279" style="fill:#272747;" width="280.213" height="4.972"/>
				<rect x="446.445" y="486.25" style="fill:#272747;" width="286.326" height="4.972"/>
				<rect x="440.332" y="491.222" style="fill:#272747;" width="292.439" height="4.972"/>
				<rect x="434.22" y="496.194" style="fill:#272747;" width="298.551" height="4.972"/>
				<g>
					<rect x="501.46" y="441.503" style="fill:#3F3E56;" width="231.31" height="0.814"/>
					<rect x="495.348" y="446.475" style="fill:#3F3E56;" width="237.423" height="0.814"/>
					<rect x="489.235" y="451.447" style="fill:#3F3E56;" width="243.536" height="0.814"/>
					<rect x="483.122" y="456.419" style="fill:#3F3E56;" width="249.649" height="0.814"/>
					<rect x="477.009" y="461.391" style="fill:#3F3E56;" width="255.762" height="0.814"/>
					<rect x="470.896" y="466.363" style="fill:#3F3E56;" width="261.874" height="0.814"/>
					<rect x="464.784" y="471.335" style="fill:#3F3E56;" width="267.987" height="0.814"/>
					<rect x="458.671" y="476.307" style="fill:#3F3E56;" width="274.1" height="0.814"/>
					<rect x="452.558" y="481.279" style="fill:#3F3E56;" width="280.213" height="0.814"/>
					<rect x="446.445" y="486.25" style="fill:#3F3E56;" width="286.326" height="0.814"/>
					<rect x="440.332" y="491.222" style="fill:#3F3E56;" width="292.439" height="0.814"/>
					<rect x="434.22" y="496.194" style="fill:#3F3E56;" width="298.551" height="0.814"/>
				</g>
			</g>
		</g>
		<g style="clip-path:url(#SVGID_00000138555028741435064300000002198935537350642871_);">
			
				<linearGradient id="SVGID_00000000190840286228712350000004483461597165688996_" gradientUnits="userSpaceOnUse" x1="645.4517" y1="638.5451" x2="645.4517" y2="376.4134" gradientTransform="matrix(-0.9775 0.2109 0.2109 0.9775 1147.3782 -128.9853)">
				<stop  offset="0.3583" style="stop-color:#1C7EB6"/>
				<stop  offset="1" style="stop-color:#44408D"/>
			</linearGradient>
			<path style="fill:url(#SVGID_00000000190840286228712350000004483461597165688996_);" d="M760.001,365.213
				c-3.822-13.846-14.084-23.038-23.166-20.531c-6.23,1.72-10.19,8.498-10.831,17.054c-0.183-0.155-0.353-0.315-0.539-0.468
				c-10.388-8.502-22.738-10.595-27.584-4.674c-4.846,5.921-0.354,17.614,10.033,26.116c0.188,0.153,0.38,0.29,0.569,0.439
				c-3.487,0.447-6.526,1.986-8.505,4.65c-4.454,5.998-1.986,15.485,5.43,21.916c-10.281-2.569-19.323-1.328-20.528,2.963
				c-0.939,3.344,3.149,7.588,9.785,10.794c-3.772,1.449-6.922,5.518-8.42,10.837c-1.078-1.515-2.422-2.8-4.049-3.754
				c-2.515-1.475-5.38-2.01-8.328-1.729c0.439-0.5,0.869-1.017,1.279-1.564c5.807-7.74,6.269-17.2,1.031-21.129
				c-5.217-3.914-14.119-0.862-19.927,6.811c-4.56-11.572-13.84-18.817-22.018-16.559c-6.046,1.669-9.938,8.113-10.749,16.312
				c-2.349-2.986-5.489-4.888-9.027-5.085c-7.959-0.444-14.896,7.878-15.492,18.587c-0.043,0.765-0.043,1.517-0.021,2.262
				c-6.959-3.652-14.411-3.333-17.764,1.182c-3.132,4.218-1.726,10.803,2.961,16.222c-1.858,0.066-3.67,0.481-5.363,1.313
				c-1.925,0.947-3.515,2.348-4.783,4.057c-0.186-2.524-0.729-5.161-1.673-7.796c-3.891-10.86-13.003-17.529-20.351-14.896
				c-6.58,2.358-9.499,11.374-7.249,21.03c-10.91-1.358-20.433,2.421-22.826,9.796c-1.91,5.887,1.218,12.581,7.447,17.746
				c-7.939-2.214-15.324-0.587-17.743,4.417c-2.593,5.361,1.389,12.784,9.032,17.658c-8.208,0.852-14.513,5.58-14.614,11.408
				c-0.079,4.578,3.694,8.609,9.276,10.681c-4.852,3.136-7.499,7.497-6.05,10.464c0.779,1.595,2.608,2.497,4.975,2.704
				c-1.579,3.26-2.238,7.374-1.898,11.849c-2.832-2.533-6.254-3.862-9.772-3.442c-7.915,0.944-13.303,10.343-12.034,20.993
				c0.091,0.761,0.221,1.502,0.372,2.232c-7.487-2.39-14.771-0.783-17.29,4.245c-2.933,5.854,1.703,14.114,10.354,18.448
				l3.153,19.057h272.896V365.213z"/>
			<g>
				
					<linearGradient id="SVGID_00000151528267875044666330000015067557992605494671_" gradientUnits="userSpaceOnUse" x1="652.7709" y1="499.8727" x2="709.6561" y2="443.6794" gradientTransform="matrix(0.7028 -0.7114 0.7114 0.7028 -87.927 571.653)">
					<stop  offset="0.3352" style="stop-color:#FFFFFF"/>
					<stop  offset="1" style="stop-color:#74B8ED"/>
				</linearGradient>
				<path style="fill:url(#SVGID_00000151528267875044666330000015067557992605494671_);" d="M764.103,399.397
					c-1.016-0.831-2.031-1.662-3.047-2.494c-7.143,8.146-14.991,15.54-23.403,22.141c5.923-8.746,11.065-17.999,15.362-27.655
					c-1.181-0.573-2.361-1.147-3.542-1.72c-4.01,7.588-8.553,14.824-13.576,21.665c2.417-7.963,4.293-16.084,5.583-24.313
					c-1.289-0.246-2.578-0.493-3.868-0.739c-1.397,6.164-3.138,12.213-5.177,18.138c-1.797-8.767-4.242-17.392-7.33-25.8
					c-1.247,0.411-2.493,0.822-3.74,1.233c3.491,11.942,5.656,24.135,6.531,36.37c-0.047,0.111-0.098,0.221-0.146,0.332
					c-3.106-11.219-7.276-22.117-12.492-32.525c-1.192,0.549-2.385,1.097-3.577,1.646c3.585,8.551,6.444,17.325,8.606,26.229
					c-4.615-7.595-9.787-14.843-15.482-21.677c-1.036,0.806-2.071,1.612-3.107,2.418c8.087,11.157,14.759,23.146,19.937,35.693
					c-0.145,0.152-0.292,0.303-0.438,0.455c-6.25-9.018-11.686-18.656-16.176-28.829c-1.219,0.488-2.436,0.977-3.655,1.466
					c2.964,8.169,6.523,16.105,10.635,23.751c-7.275-5.304-14.937-10.062-22.933-14.217c-0.644,1.143-1.288,2.287-1.932,3.431
					c9.254,5.634,17.89,12.09,25.841,19.24c-9.635-4.328-19.636-7.8-29.887-10.369c-0.361,1.262-0.723,2.523-1.084,3.786
					c8.165,2.643,16.076,5.872,23.68,9.641c-8.26-1.009-16.583-1.459-24.911-1.312c-0.02,1.313-0.041,2.625-0.062,3.937
					c10.924,0.545,21.409,2.374,32.054,4.739c5.766,0.653,12.886,2.848,16.569,7.507c1.554,1.966,3.159,3.896,4.798,5.8
					c0.35,0.407,0.704,0.811,1.058,1.215c0.023-0.231,0.051-0.462,0.073-0.692c0.078-0.81,0.147-1.62,0.214-2.43
					c0.359-4.351,0.473-8.72,0.599-13.083c0.041-1.421-0.884-11.584-0.258-11.899c11.502-5.788,23.688-10.333,36.372-13.472
					c-0.271-1.284-0.543-2.568-0.815-3.852c-8.557,1.513-16.987,3.652-25.228,6.385
					C752.626,413.286,758.632,406.558,764.103,399.397z"/>
				
					<linearGradient id="SVGID_00000166653189042367458820000014999324736076292026_" gradientUnits="userSpaceOnUse" x1="565.2302" y1="452.9089" x2="607.0364" y2="411.6112" gradientTransform="matrix(0.9968 -0.0805 0.0805 0.9968 19.2391 73.7341)">
					<stop  offset="0" style="stop-color:#84BCEA"/>
					<stop  offset="1" style="stop-color:#1C92DA"/>
				</linearGradient>
				<path style="fill:url(#SVGID_00000166653189042367458820000014999324736076292026_);" d="M668.472,464.789
					c-0.167-0.95-0.334-1.9-0.501-2.85c-7.885,1.11-15.801,1.465-23.652,1.106c7.493-2.03,14.795-4.717,21.818-8.034
					c-0.383-0.885-0.765-1.771-1.148-2.657c-5.872,2.302-11.873,4.154-17.951,5.555c5.165-3.275,10.104-6.898,14.769-10.862
					c-0.6-0.755-1.2-1.511-1.799-2.267c-3.734,2.763-7.605,5.297-11.582,7.618c3.203-5.744,5.979-11.721,8.291-17.884
					c-0.891-0.369-1.783-0.738-2.674-1.107c-3.783,8.325-8.425,16.153-13.805,23.386c-0.08,0.039-0.161,0.076-0.241,0.115
					c3.651-7.737,6.555-15.807,8.642-24.104c-0.927-0.266-1.854-0.533-2.781-0.799c-2.104,6.481-4.72,12.738-7.787,18.734
					c1.072-6.443,1.668-12.96,1.774-19.497c-0.964-0.048-1.927-0.096-2.89-0.143c-0.847,10.092-2.881,19.968-6.015,29.439
					c-0.154,0.015-0.308,0.029-0.462,0.043c0.844-8.02,2.439-15.994,4.817-23.812c-0.913-0.312-1.826-0.624-2.738-0.936
					c-2.267,5.971-4.091,12.097-5.468,18.327c-1.508-6.443-3.493-12.767-5.953-18.916c-0.907,0.328-1.814,0.656-2.721,0.984
					c2.452,7.576,4.164,15.313,5.163,23.108c-3.29-7.031-7.195-13.761-11.671-20.108c-0.806,0.529-1.613,1.059-2.419,1.588
					c3.279,5.388,6.136,10.98,8.563,16.726c-4.116-4.523-8.535-8.766-13.244-12.678c-0.641,0.721-1.282,1.442-1.923,2.163
					c5.822,5.542,10.784,11.59,15.578,18.012c2.898,3.129,5.81,7.766,5.627,12.127c-0.077,1.84-0.109,3.684-0.11,5.531
					c0,0.394,0.003,0.789,0.006,1.184c0.124-0.117,0.25-0.233,0.373-0.35c0.432-0.414,0.859-0.832,1.285-1.251
					c2.286-2.251,4.446-4.629,6.608-6.999c0.704-0.772,5.063-6.875,5.563-6.75c9.181,2.293,18.148,5.606,26.717,9.941
					c0.465-0.845,0.929-1.691,1.394-2.536c-5.491-3.262-11.212-6.113-17.112-8.543C655.42,467.02,661.992,466.154,668.472,464.789z"
					/>
				
					<linearGradient id="SVGID_00000044166017885982460920000014028584335613333144_" gradientUnits="userSpaceOnUse" x1="-51.0812" y1="436.8031" x2="-51.0812" y2="405.9493" gradientTransform="matrix(0.997 0.0773 -0.1752 2.2591 856.8836 -502.1214)">
					<stop  offset="0" style="stop-color:#84BCEA"/>
					<stop  offset="1" style="stop-color:#1C92DA"/>
				</linearGradient>
				<path style="fill:url(#SVGID_00000044166017885982460920000014028584335613333144_);" d="M760.859,454.733
					c-1.21,15.6-15.283,27.231-31.432,25.979c-16.149-1.253-28.26-14.915-27.05-30.515c1.21-15.6,15.283-40.519,31.432-39.266
					C749.959,412.184,762.069,439.133,760.859,454.733z"/>
				
					<linearGradient id="SVGID_00000089565736588473343480000011622052417121770133_" gradientUnits="userSpaceOnUse" x1="-165.0504" y1="454.5515" x2="-165.0504" y2="429.0934" gradientTransform="matrix(0.997 0.0773 -0.1752 2.2591 856.8836 -502.1214)">
					<stop  offset="0" style="stop-color:#FFFFFF"/>
					<stop  offset="1" style="stop-color:#74B8ED"/>
				</linearGradient>
				<path style="fill:url(#SVGID_00000089565736588473343480000011622052417121770133_);" d="M638.626,490.562
					c-0.998,12.872-12.61,22.469-25.935,21.435c-13.325-1.034-23.318-12.307-22.319-25.179c0.999-12.872,12.61-33.433,25.935-32.399
					C629.632,455.453,639.624,477.69,638.626,490.562z"/>
			</g>
		</g>
		<g style="clip-path:url(#SVGID_00000138555028741435064300000002198935537350642871_);">
			
				<linearGradient id="SVGID_00000078025872219844969500000005492144066573648524_" gradientUnits="userSpaceOnUse" x1="-736.5239" y1="443.8662" x2="-736.5239" y2="407.7274" gradientTransform="matrix(0.9003 0.4352 -0.6693 1.3848 997.7913 159.9393)">
				<stop  offset="0" style="stop-color:#44408D"/>
				<stop  offset="1" style="stop-color:#1C7EB6"/>
			</linearGradient>
			<path style="fill:url(#SVGID_00000078025872219844969500000005492144066573648524_);" d="M87.872,447.491
				c-6.679,13.819-29.179,16.765-50.253,6.578c-21.075-10.186-32.744-29.647-26.065-43.466c6.68-13.819,29.179-16.765,50.253-6.578
				C82.882,414.211,94.551,433.672,87.872,447.491z"/>
			<g>
				
					<rect x="138.241" y="322.831" transform="matrix(-1 -1.224647e-16 1.224647e-16 -1 277.8451 654.9978)" style="fill:#272747;" width="1.363" height="9.336"/>
				<g>
					
						<linearGradient id="SVGID_00000144298556952986568070000011527670412369428119_" gradientUnits="userSpaceOnUse" x1="-2060.5942" y1="-3349.0291" x2="-2060.8684" y2="-3340.2114" gradientTransform="matrix(-0.7577 0.6526 0.2723 0.3162 -540.6225 2736.8706)">
						<stop  offset="0" style="stop-color:#FB9898"/>
						<stop  offset="1" style="stop-color:#E38776"/>
					</linearGradient>
					<polygon style="fill:url(#SVGID_00000144298556952986568070000011527670412369428119_);" points="95.648,348.956 
						126.517,322.37 124.459,319.981 93.59,346.567 					"/>
					
						<linearGradient id="SVGID_00000145736623663404190350000006301358838893158024_" gradientUnits="userSpaceOnUse" x1="277.9363" y1="347.6678" x2="206.2173" y2="419.387" gradientTransform="matrix(-1 0 0 1 336.6449 0)">
						<stop  offset="0" style="stop-color:#FB9898"/>
						<stop  offset="1" style="stop-color:#E38776"/>
					</linearGradient>
					<polygon style="fill:url(#SVGID_00000145736623663404190350000006301358838893158024_);" points="91.103,451.781 
						98.033,451.781 98.033,315.273 91.103,315.273 					"/>
					
						<linearGradient id="SVGID_00000013883004647687971700000012935211295958115233_" gradientUnits="userSpaceOnUse" x1="234.285" y1="304.0164" x2="204.2137" y2="334.0876" gradientTransform="matrix(-1 0 0 1 336.6449 0)">
						<stop  offset="0" style="stop-color:#FB9898"/>
						<stop  offset="1" style="stop-color:#E38776"/>
					</linearGradient>
					<polygon style="fill:url(#SVGID_00000013883004647687971700000012935211295958115233_);" points="91.103,322.831 
						143.688,322.831 143.688,315.273 91.103,315.273 					"/>
				</g>
				<g>
					
						<linearGradient id="SVGID_00000100383631468195281370000013814975107689918091_" gradientUnits="userSpaceOnUse" x1="211.7931" y1="340.9406" x2="183.6516" y2="369.0821" gradientTransform="matrix(-1 0 0 1 336.6449 0)">
						<stop  offset="0" style="stop-color:#FF977C"/>
						<stop  offset="0.1004" style="stop-color:#FF8A75"/>
						<stop  offset="0.2862" style="stop-color:#FF6761"/>
						<stop  offset="0.4034" style="stop-color:#FF4E53"/>
						<stop  offset="0.5243" style="stop-color:#F24650"/>
						<stop  offset="0.7491" style="stop-color:#CF2F4A"/>
						<stop  offset="1" style="stop-color:#A11241"/>
					</linearGradient>
					<path style="fill:url(#SVGID_00000100383631468195281370000013814975107689918091_);" d="M134.965,375.64h7.915
						c4.741,0,8.584-3.843,8.584-8.584v-24.09c0-4.741-3.843-8.584-8.584-8.584h-7.915c-4.741,0-8.584,3.843-8.584,8.584v24.09
						C126.381,371.797,130.225,375.64,134.965,375.64z"/>
					
						<rect x="134.371" y="331.204" transform="matrix(-1 -1.224647e-16 1.224647e-16 -1 277.8452 665.5543)" style="fill:#272747;" width="9.103" height="3.146"/>
					
						<rect x="134.371" y="375.64" transform="matrix(-1 -1.224647e-16 1.224647e-16 -1 277.8452 754.4259)" style="fill:#272747;" width="9.103" height="3.146"/>
					<path style="opacity:0.6;fill:#D35E67;" d="M144.706,375.611h-1.439c2.55-1.077,4.347-3.592,4.347-6.529v-28.141
						c0-2.805-1.638-5.226-4.005-6.376h1.329c2.017,1.405,3.343,3.737,3.343,6.376v28.141
						C148.281,371.82,146.853,374.227,144.706,375.611z"/>
					<path style="opacity:0.6;fill:#D35E67;" d="M130.23,340.941v28.141c0,2.938,1.798,5.453,4.347,6.529h-1.439
						c-2.147-1.384-3.575-3.791-3.575-6.529v-28.141c0-2.639,1.326-4.972,3.343-6.376h1.329
						C131.869,335.715,130.23,338.136,130.23,340.941z"/>
					<path style="opacity:0.6;fill:#D35E67;" d="M134.783,340.941v28.141c0,2.931,1.061,5.447,2.569,6.529h-0.984
						c-1.352-1.382-2.252-3.789-2.252-6.529v-28.141c0-2.648,0.845-4.974,2.121-6.376h0.916
						C135.751,335.719,134.783,338.141,134.783,340.941z"/>
					<polygon style="opacity:0.6;fill:#D35E67;" points="138.514,375.611 138.66,334.565 139.327,334.565 139.18,375.611 					"/>
					<path style="opacity:0.6;fill:#D35E67;" d="M143.729,369.082c0,2.74-0.9,5.147-2.252,6.529h-0.994
						c1.513-1.079,2.579-3.594,2.579-6.529v-28.141c0-2.803-0.971-5.223-2.375-6.376h0.92c1.276,1.402,2.121,3.728,2.121,6.376
						V369.082z"/>
				</g>
				<polygon style="fill:#272747;" points="138.027,322.831 139.476,322.831 136.75,315.273 135.301,315.273 				"/>
				<polygon style="fill:#272747;" points="139.818,322.831 138.369,322.831 141.095,315.273 142.544,315.273 				"/>
			</g>
			
				<ellipse transform="matrix(0.3181 -0.948 0.948 0.3181 -377.796 390.5546)" style="fill:#323654;" cx="82.611" cy="457.916" rx="17.94" ry="27.358"/>
			<g>
				
					<linearGradient id="SVGID_00000023970337893360089770000018262897683430665121_" gradientUnits="userSpaceOnUse" x1="-691.108" y1="190.9215" x2="-691.108" y2="143.8188" gradientTransform="matrix(1 0 0 1 787.5558 0)">
					<stop  offset="0" style="stop-color:#1C7EB6"/>
					<stop  offset="1" style="stop-color:#64AADA"/>
				</linearGradient>
				
					<ellipse style="fill:url(#SVGID_00000023970337893360089770000018262897683430665121_);" cx="96.448" cy="167.37" rx="54.178" ry="23.551"/>
				
					<linearGradient id="SVGID_00000150078484365695549030000003841288112493977231_" gradientUnits="userSpaceOnUse" x1="-608.1195" y1="215.3681" x2="-608.1195" y2="185.453" gradientTransform="matrix(1 0 0 1 787.5558 0)">
					<stop  offset="0" style="stop-color:#44408D"/>
					<stop  offset="1" style="stop-color:#1C7EB6"/>
				</linearGradient>
				
					<ellipse style="fill:url(#SVGID_00000150078484365695549030000003841288112493977231_);" cx="179.436" cy="200.411" rx="34.409" ry="14.958"/>
				<path style="fill:#252577;" d="M54.925,208.578c2.549-0.31,5.107-0.765,7.571-1.606c2.452-0.853,4.868-1.916,7.137-3.305
					c2.263-1.392,4.425-3.009,6.452-4.825c2.002-1.844,3.879-3.862,5.625-6.016c3.475-4.326,6.394-9.18,8.86-14.277
					c2.438-5.112,4.484-10.464,5.924-16.004c-0.794,5.677-2.218,11.281-4.092,16.757c-1.905,5.465-4.317,10.812-7.463,15.819
					c-1.583,2.496-3.347,4.903-5.311,7.181c-1.993,2.253-4.2,4.354-6.614,6.251c-2.42,1.895-5.101,3.488-7.917,4.845
					c-2.831,1.346-5.847,2.275-8.918,3.002L54.925,208.578z"/>
				
					<linearGradient id="SVGID_00000182486026913185037460000016092110959132772279_" gradientUnits="userSpaceOnUse" x1="-781.2349" y1="228.4209" x2="-781.2349" y2="162.8691" gradientTransform="matrix(1 0 0 1 787.5558 0)">
					<stop  offset="0" style="stop-color:#1C7EB6"/>
					<stop  offset="1" style="stop-color:#64AADA"/>
				</linearGradient>
				
					<ellipse style="fill:url(#SVGID_00000182486026913185037460000016092110959132772279_);" cx="6.321" cy="195.645" rx="64.19" ry="32.776"/>
				
					<linearGradient id="SVGID_00000052807538988400993680000008307934262132860071_" gradientUnits="userSpaceOnUse" x1="-743.0058" y1="268.2664" x2="-743.0058" y2="192.1347" gradientTransform="matrix(1 0 0 1 787.5558 0)">
					<stop  offset="0" style="stop-color:#44408D"/>
					<stop  offset="1" style="stop-color:#1C7EB6"/>
				</linearGradient>
				
					<ellipse style="fill:url(#SVGID_00000052807538988400993680000008307934262132860071_);" cx="44.55" cy="230.201" rx="74.55" ry="38.066"/>
				
					<linearGradient id="SVGID_00000124850595533015427100000008690608016750975391_" gradientUnits="userSpaceOnUse" x1="-768.3307" y1="274.3333" x2="-768.3307" y2="240.3368" gradientTransform="matrix(1 0 0 1 787.5558 0)">
					<stop  offset="0" style="stop-color:#2D89BF"/>
					<stop  offset="1" style="stop-color:#64BAEC"/>
				</linearGradient>
				
					<ellipse style="fill:url(#SVGID_00000124850595533015427100000008690608016750975391_);" cx="19.225" cy="257.335" rx="33.29" ry="16.998"/>
				
					<linearGradient id="SVGID_00000004537963404289921160000002427452191868937617_" gradientUnits="userSpaceOnUse" x1="-642.6663" y1="244.8488" x2="-642.6663" y2="200.4106" gradientTransform="matrix(1 0 0 1 787.5558 0)">
					<stop  offset="0" style="stop-color:#2D89BF"/>
					<stop  offset="1" style="stop-color:#64BAEC"/>
				</linearGradient>
				
					<ellipse style="fill:url(#SVGID_00000004537963404289921160000002427452191868937617_);" cx="144.889" cy="222.63" rx="52.116" ry="22.219"/>
				<path style="fill:#272747;" d="M128.605,242.276c-1.694,5.473-3.824,10.807-6.736,15.652
					c-5.866,9.674-14.281,17.687-23.895,23.347c-9.583,5.776-20.66,8.394-31.723,12.436c-3.971,1.446-7.978,3.136-11.829,5.271
					c0.412-1.729,0.799-3.459,1.153-5.191c3.074-15.635,3.969-31.255,4.629-46.812c-1.517,7.642-3.06,15.273-4.91,22.797
					c-1.886,7.51-3.935,14.951-6.563,22.108c-2.631,7.124-5.735,13.981-9.428,20.386c-0.353,0.544-0.694,1.099-1.013,1.669
					c-0.695,1.129-1.408,2.244-2.146,3.337c-3.861-2.701-7.379-5.943-10.145-9.829c-2.969-4.093-5.17-8.822-6.514-13.858
					c-1.384-5.032-1.923-10.354-1.84-15.691c0.107-5.338,0.772-10.726,2.201-15.95c-2.03,5.03-3.342,10.367-4.09,15.806
					c-0.723,5.442-0.828,11.04,0.018,16.603c0.806,5.558,2.595,11.081,5.419,16.126c2.663,4.855,6.348,9.155,10.531,12.839
					c-1.792,2.27-3.669,4.459-5.624,6.561l-3.809,3.874l-4.08,3.595c-0.693,0.583-1.319,1.222-2.06,1.757l-2.17,1.647l-2.158,1.643
					c-0.717,0.548-1.42,1.106-2.201,1.588c-3.068,2.007-5.946,3.981-9.358,6.038c-3.313,2.048-6.67,4.14-10.048,6.313
					c-3.38,2.199-6.773,4.49-10.153,6.954c-3.371,2.497-6.724,5.155-9.994,8.086c-3.251,2.969-6.415,6.193-9.382,9.754
					c-2.929,3.609-5.63,7.544-7.989,11.785l25.741,12.04c1.014-2.761,2.295-5.516,3.86-8.246c1.622-2.71,3.52-5.394,5.636-8.039
					c2.155-2.632,4.54-5.219,7.067-7.775c2.559-2.544,5.271-5.059,8.074-7.562c2.829-2.5,5.738-5,8.702-7.526
					c2.929-2.436,6.092-5.351,9.147-8.122c0.782-0.675,1.501-1.44,2.227-2.192l2.175-2.251l2.163-2.247
					c0.733-0.732,1.366-1.584,2.05-2.368c1.339-1.604,2.688-3.189,3.997-4.801l3.658-5.071c4.681-6.88,8.635-14.188,11.66-21.777
					c0.752-1.929,1.451-3.869,2.103-5.817c1.103-1.118,2.297-2.185,3.581-3.174c4.187-3.276,9.045-5.847,14.199-8.105
					c5.148-2.277,10.551-4.278,15.936-6.569c2.692-1.146,5.379-2.365,8.016-3.73c2.637-1.378,5.2-2.898,7.658-4.562
					c9.817-6.67,18.024-15.602,23.461-26.021c2.7-5.228,4.511-10.809,5.864-16.431c1.363-5.628,2.305-11.315,3.339-16.982
					C131.618,231.178,130.311,236.798,128.605,242.276z"/>
			</g>
			
				<linearGradient id="SVGID_00000097483551244944097810000014483944901882147994_" gradientUnits="userSpaceOnUse" x1="-758.8914" y1="439.347" x2="-758.8914" y2="416.1502" gradientTransform="matrix(0.997 0.0773 -0.1752 2.2591 856.8836 -502.1214)">
				<stop  offset="0" style="stop-color:#FFFFFF"/>
				<stop  offset="1" style="stop-color:#74B8ED"/>
			</linearGradient>
			<path style="fill:url(#SVGID_00000097483551244944097810000014483944901882147994_);" d="M46.926,412.214
				c-0.91,11.729-11.49,20.473-23.632,19.531S2.048,420.531,2.958,408.803s11.49-30.463,23.632-29.521
				C38.731,380.223,47.836,400.485,46.926,412.214z"/>
			<path style="fill:#454A68;" d="M178.722,488.534c-1.263,16.275-15.944,28.408-32.791,27.101
				c-16.847-1.307-29.481-15.56-28.219-31.834c1.262-16.275,15.944-42.27,32.791-40.963
				C167.35,444.145,179.984,472.259,178.722,488.534z"/>
			<path style="fill:#454A68;" d="M21.984,427.722c-0.91,11.729-11.49,20.473-23.632,19.531
				c-12.141-0.942-21.247-11.214-20.337-22.942c0.91-11.729,11.49-30.463,23.632-29.521
				C13.789,395.732,22.894,415.993,21.984,427.722z"/>
			
				<linearGradient id="SVGID_00000103239098701963914270000002841438482410496641_" gradientUnits="userSpaceOnUse" x1="-648.1588" y1="464.4346" x2="-648.1588" y2="448.7586" gradientTransform="matrix(0.997 0.0773 -0.1752 2.2591 856.8836 -502.1214)">
				<stop  offset="0" style="stop-color:#FFFFFF"/>
				<stop  offset="1" style="stop-color:#74B8ED"/>
			</linearGradient>
			<path style="fill:url(#SVGID_00000103239098701963914270000002841438482410496641_);" d="M145.27,483.781
				c-0.615,7.926-7.765,13.835-15.97,13.199c-8.205-0.637-14.358-7.578-13.743-15.504c0.615-7.926,7.765-20.586,15.97-19.95
				C139.732,462.163,145.885,475.855,145.27,483.781z"/>
			
				<linearGradient id="SVGID_00000128477872038938383770000010560704604792420232_" gradientUnits="userSpaceOnUse" x1="59.7137" y1="454.5173" x2="59.7137" y2="409.4978">
				<stop  offset="0.3352" style="stop-color:#FFFFFF"/>
				<stop  offset="1" style="stop-color:#74B8ED"/>
			</linearGradient>
			<path style="fill:url(#SVGID_00000128477872038938383770000010560704604792420232_);" d="M87.626,441.028
				c-0.079-0.838-0.157-1.677-0.236-2.515c-6.939,0.412-13.853,0.164-20.659-0.699c6.663-1.24,13.205-3.065,19.55-5.458
				c-0.271-0.797-0.541-1.595-0.812-2.392c-5.272,1.591-10.623,2.78-16.011,3.572c4.724-2.487,9.277-5.293,13.615-8.415
				c-0.469-0.699-0.938-1.399-1.407-2.099c-3.444,2.142-6.99,4.074-10.613,5.815c3.191-4.773,6.026-9.779,8.472-14.979
				c-0.75-0.383-1.499-0.767-2.249-1.151c-3.877,6.978-8.467,13.464-13.656,19.38c-0.072,0.029-0.145,0.055-0.217,0.083
				c3.721-6.476,6.815-13.294,9.214-20.368c-0.788-0.297-1.576-0.594-2.364-0.891c-2.286,5.492-5.002,10.753-8.092,15.755
				c1.386-5.531,2.362-11.16,2.913-16.841c-0.835-0.109-1.67-0.219-2.505-0.328c-1.446,8.722-3.91,17.174-7.302,25.194
				c-0.135,0.002-0.27,0.003-0.405,0.005c1.298-6.919,3.246-13.746,5.865-20.383c-0.772-0.336-1.545-0.671-2.317-1.007
				c-2.392,5.036-4.41,10.239-6.046,15.564c-0.859-5.712-2.143-11.355-3.851-16.878c-0.812,0.222-1.625,0.444-2.437,0.665
				c1.601,6.764,2.548,13.617,2.869,20.471c-2.369-6.35-5.294-12.48-8.743-18.318c-0.739,0.404-1.478,0.808-2.217,1.212
				c2.475,4.919,4.568,9.985,6.277,15.156c-3.264-4.225-6.811-8.227-10.634-11.962c-0.608,0.582-1.217,1.165-1.825,1.747
				c4.677,5.232,8.57,10.843,12.29,16.768c2.302,2.927,4.51,7.166,4.045,10.948c-0.197,1.596-0.354,3.199-0.484,4.805
				c-0.028,0.343-0.053,0.687-0.078,1.031c0.116-0.094,0.234-0.185,0.349-0.279c0.405-0.33,0.806-0.663,1.206-0.998
				c2.148-1.798,4.194-3.716,6.242-5.626c0.667-0.622,4.889-5.627,5.315-5.483c7.828,2.641,15.398,6.153,22.55,10.528
				c0.464-0.703,0.928-1.406,1.391-2.109c-4.549-3.224-9.327-6.107-14.29-8.636C76.112,442.052,81.891,441.759,87.626,441.028z"/>
		</g>
		<g style="clip-path:url(#SVGID_00000138555028741435064300000002198935537350642871_);">
			<path style="fill:#272747;" d="M645.632,500c10.313-20.944,24.661-38.933,43.138-52.947
				C763.359,390.48,882.139,415.68,982.37,500H645.632z"/>
			<path style="fill:#323654;" d="M540.23,500c14.175-10.715,29.733-19.303,46.7-25.283c55.714-19.634,117.112-8.781,174.953,25.283
				H540.23z"/>
			<path style="fill:#272747;" d="M-151.561,500c56.781-64.957,130.03-96.442,194.431-74.821
				c35.749,12.002,63.783,38.726,82.725,74.821H-151.561z"/>
			<path style="fill:#323654;" d="M21.989,500c49.256-34.302,102.027-44.618,142.223-22.014
				c10.087,5.672,18.786,13.128,26.147,22.014H21.989z"/>
			<path style="fill:#323654;" d="M349.174,500c-36.345-16.07-74.274-16.997-103.644,0H349.174z"/>
		</g>
	</g>
</g>
</svg>
